<svg width="1920" height="741" viewBox="0 0 1920 741" fill="none" xmlns="http://www.w3.org/2000/svg">
<path d="M1655.54 0H1554.66L1920 365.65V264.688L1655.54 0Z" fill="#E5E5E5"/>
<path d="M1359.72 0L1407.53 47.996L1455.49 0H1359.72Z" fill="#4A4F52"/>
<path d="M1775.36 239.905L1689.98 325.353L1775.36 410.8L1860.73 325.353L1775.36 239.905Z" fill="#2979FF"/>
<path d="M1651.71 249.746L1611.98 289.508L1651.71 329.269L1691.44 289.508L1651.71 249.746Z" fill="#4A4F52"/>
<path d="M70.8889 300.793L31.1609 340.555L70.8889 380.317L110.617 340.555L70.8889 300.793Z" fill="#4A4F52"/>
<path d="M1920 241.968V144.272L1775.85 0H1678.24L1920 241.968Z" fill="#4A4F52"/>
<path d="M1920 26.554V0H1864.24L1714.27 150.094L1564.45 0H1482.16L1714.27 232.312L1920 26.554Z" fill="#2979FF"/>
<g opacity="0.6">
<path opacity="0.6" d="M1920 282.296L1637.94 0" stroke="#B9BCC3" stroke-width="0.5" stroke-miterlimit="10"/>
<path opacity="0.6" d="M1920 295.218L1625.03 0" stroke="#B9BCC3" stroke-width="0.5" stroke-miterlimit="10"/>
<path opacity="0.6" d="M1920 308.14L1612.12 0" stroke="#B9BCC3" stroke-width="0.5" stroke-miterlimit="10"/>
<path opacity="0.6" d="M1920 320.92L1599.35 0" stroke="#B9BCC3" stroke-width="0.5" stroke-miterlimit="10"/>
<path opacity="0.6" d="M1920 333.842L1586.44 0" stroke="#B9BCC3" stroke-width="0.5" stroke-miterlimit="10"/>
</g>
<path d="M1735.13 608.754L1920 423.728V311.264L1622.76 608.754L1731.5 718.5L1836.29 710L1735.13 608.754Z" fill="#4A4F52"/>
<path d="M1795.5 758.5L1920 633.604V530.796L1685.5 758.5H1795.5Z" fill="#2979FF"/>
<path d="M521.634 530.796C522.731 530.796 523.62 529.906 523.62 528.808C523.62 527.71 522.731 526.82 521.634 526.82C520.537 526.82 519.647 527.71 519.647 528.808C519.647 529.906 520.537 530.796 521.634 530.796Z" fill="#2979FF"/>
<path d="M521.634 512.336C522.731 512.336 523.62 511.446 523.62 510.348C523.62 509.25 522.731 508.36 521.634 508.36C520.537 508.36 519.647 509.25 519.647 510.348C519.647 511.446 520.537 512.336 521.634 512.336Z" fill="#2979FF"/>
<path d="M521.634 493.876C522.731 493.876 523.62 492.986 523.62 491.888C523.62 490.79 522.731 489.9 521.634 489.9C520.537 489.9 519.647 490.79 519.647 491.888C519.647 492.986 520.537 493.876 521.634 493.876Z" fill="#2979FF"/>
<path d="M521.634 475.416C522.731 475.416 523.62 474.526 523.62 473.428C523.62 472.33 522.731 471.44 521.634 471.44C520.537 471.44 519.647 472.33 519.647 473.428C519.647 474.526 520.537 475.416 521.634 475.416Z" fill="#2979FF"/>
<path d="M521.634 456.956C522.731 456.956 523.62 456.066 523.62 454.968C523.62 453.87 522.731 452.98 521.634 452.98C520.537 452.98 519.647 453.87 519.647 454.968C519.647 456.066 520.537 456.956 521.634 456.956Z" fill="#2979FF"/>
<path d="M521.634 438.496C522.731 438.496 523.62 437.606 523.62 436.508C523.62 435.41 522.731 434.52 521.634 434.52C520.537 434.52 519.647 435.41 519.647 436.508C519.647 437.606 520.537 438.496 521.634 438.496Z" fill="#2979FF"/>
<path d="M521.634 420.036C522.731 420.036 523.62 419.146 523.62 418.048C523.62 416.95 522.731 416.06 521.634 416.06C520.537 416.06 519.647 416.95 519.647 418.048C519.647 419.146 520.537 420.036 521.634 420.036Z" fill="#2979FF"/>
<path d="M540.078 530.796C541.175 530.796 542.064 529.906 542.064 528.808C542.064 527.71 541.175 526.82 540.078 526.82C538.981 526.82 538.092 527.71 538.092 528.808C538.092 529.906 538.981 530.796 540.078 530.796Z" fill="#2979FF"/>
<path d="M540.078 512.336C541.175 512.336 542.064 511.446 542.064 510.348C542.064 509.25 541.175 508.36 540.078 508.36C538.981 508.36 538.092 509.25 538.092 510.348C538.092 511.446 538.981 512.336 540.078 512.336Z" fill="#2979FF"/>
<path d="M540.078 493.876C541.175 493.876 542.064 492.986 542.064 491.888C542.064 490.79 541.175 489.9 540.078 489.9C538.981 489.9 538.092 490.79 538.092 491.888C538.092 492.986 538.981 493.876 540.078 493.876Z" fill="#2979FF"/>
<path d="M540.078 475.416C541.175 475.416 542.064 474.526 542.064 473.428C542.064 472.33 541.175 471.44 540.078 471.44C538.981 471.44 538.092 472.33 538.092 473.428C538.092 474.526 538.981 475.416 540.078 475.416Z" fill="#2979FF"/>
<path d="M540.078 456.956C541.175 456.956 542.064 456.066 542.064 454.968C542.064 453.87 541.175 452.98 540.078 452.98C538.981 452.98 538.092 453.87 538.092 454.968C538.092 456.066 538.981 456.956 540.078 456.956Z" fill="#2979FF"/>
<path d="M540.078 438.496C541.175 438.496 542.064 437.606 542.064 436.508C542.064 435.41 541.175 434.52 540.078 434.52C538.981 434.52 538.092 435.41 538.092 436.508C538.092 437.606 538.981 438.496 540.078 438.496Z" fill="#2979FF"/>
<path d="M540.078 420.036C541.175 420.036 542.064 419.146 542.064 418.048C542.064 416.95 541.175 416.06 540.078 416.06C538.981 416.06 538.092 416.95 538.092 418.048C538.092 419.146 538.981 420.036 540.078 420.036Z" fill="#2979FF"/>
<path d="M558.522 530.796C559.619 530.796 560.509 529.906 560.509 528.808C560.509 527.71 559.619 526.82 558.522 526.82C557.425 526.82 556.536 527.71 556.536 528.808C556.536 529.906 557.425 530.796 558.522 530.796Z" fill="#2979FF"/>
<path d="M558.522 512.336C559.619 512.336 560.509 511.446 560.509 510.348C560.509 509.25 559.619 508.36 558.522 508.36C557.425 508.36 556.536 509.25 556.536 510.348C556.536 511.446 557.425 512.336 558.522 512.336Z" fill="#2979FF"/>
<path d="M558.522 493.876C559.619 493.876 560.509 492.986 560.509 491.888C560.509 490.79 559.619 489.9 558.522 489.9C557.425 489.9 556.536 490.79 556.536 491.888C556.536 492.986 557.425 493.876 558.522 493.876Z" fill="#2979FF"/>
<path d="M558.522 475.416C559.619 475.416 560.509 474.526 560.509 473.428C560.509 472.33 559.619 471.44 558.522 471.44C557.425 471.44 556.536 472.33 556.536 473.428C556.536 474.526 557.425 475.416 558.522 475.416Z" fill="#2979FF"/>
<path d="M558.522 456.956C559.619 456.956 560.509 456.066 560.509 454.968C560.509 453.87 559.619 452.98 558.522 452.98C557.425 452.98 556.536 453.87 556.536 454.968C556.536 456.066 557.425 456.956 558.522 456.956Z" fill="#2979FF"/>
<path d="M558.522 438.496C559.619 438.496 560.509 437.606 560.509 436.508C560.509 435.41 559.619 434.52 558.522 434.52C557.425 434.52 556.536 435.41 556.536 436.508C556.536 437.606 557.425 438.496 558.522 438.496Z" fill="#2979FF"/>
<path d="M558.522 420.036C559.619 420.036 560.509 419.146 560.509 418.048C560.509 416.95 559.619 416.06 558.522 416.06C557.425 416.06 556.536 416.95 556.536 418.048C556.536 419.146 557.425 420.036 558.522 420.036Z" fill="#2979FF"/>
<path d="M576.967 530.796C578.064 530.796 578.953 529.906 578.953 528.808C578.953 527.71 578.064 526.82 576.967 526.82C575.87 526.82 574.98 527.71 574.98 528.808C574.98 529.906 575.87 530.796 576.967 530.796Z" fill="#2979FF"/>
<path d="M576.967 512.336C578.064 512.336 578.953 511.446 578.953 510.348C578.953 509.25 578.064 508.36 576.967 508.36C575.87 508.36 574.98 509.25 574.98 510.348C574.98 511.446 575.87 512.336 576.967 512.336Z" fill="#2979FF"/>
<path d="M576.967 493.876C578.064 493.876 578.953 492.986 578.953 491.888C578.953 490.79 578.064 489.9 576.967 489.9C575.87 489.9 574.98 490.79 574.98 491.888C574.98 492.986 575.87 493.876 576.967 493.876Z" fill="#2979FF"/>
<path d="M576.967 475.416C578.064 475.416 578.953 474.526 578.953 473.428C578.953 472.33 578.064 471.44 576.967 471.44C575.87 471.44 574.98 472.33 574.98 473.428C574.98 474.526 575.87 475.416 576.967 475.416Z" fill="#2979FF"/>
<path d="M576.967 456.956C578.064 456.956 578.953 456.066 578.953 454.968C578.953 453.87 578.064 452.98 576.967 452.98C575.87 452.98 574.98 453.87 574.98 454.968C574.98 456.066 575.87 456.956 576.967 456.956Z" fill="#2979FF"/>
<path d="M576.967 438.496C578.064 438.496 578.953 437.606 578.953 436.508C578.953 435.41 578.064 434.52 576.967 434.52C575.87 434.52 574.98 435.41 574.98 436.508C574.98 437.606 575.87 438.496 576.967 438.496Z" fill="#2979FF"/>
<path d="M576.967 420.036C578.064 420.036 578.953 419.146 578.953 418.048C578.953 416.95 578.064 416.06 576.967 416.06C575.87 416.06 574.98 416.95 574.98 418.048C574.98 419.146 575.87 420.036 576.967 420.036Z" fill="#2979FF"/>
<path d="M595.411 530.796C596.508 530.796 597.397 529.906 597.397 528.808C597.397 527.71 596.508 526.82 595.411 526.82C594.314 526.82 593.425 527.71 593.425 528.808C593.425 529.906 594.314 530.796 595.411 530.796Z" fill="#2979FF"/>
<path d="M595.411 512.336C596.508 512.336 597.397 511.446 597.397 510.348C597.397 509.25 596.508 508.36 595.411 508.36C594.314 508.36 593.425 509.25 593.425 510.348C593.425 511.446 594.314 512.336 595.411 512.336Z" fill="#2979FF"/>
<path d="M595.411 493.876C596.508 493.876 597.397 492.986 597.397 491.888C597.397 490.79 596.508 489.9 595.411 489.9C594.314 489.9 593.425 490.79 593.425 491.888C593.425 492.986 594.314 493.876 595.411 493.876Z" fill="#2979FF"/>
<path d="M595.411 475.416C596.508 475.416 597.397 474.526 597.397 473.428C597.397 472.33 596.508 471.44 595.411 471.44C594.314 471.44 593.425 472.33 593.425 473.428C593.425 474.526 594.314 475.416 595.411 475.416Z" fill="#2979FF"/>
<path d="M595.411 456.956C596.508 456.956 597.397 456.066 597.397 454.968C597.397 453.87 596.508 452.98 595.411 452.98C594.314 452.98 593.425 453.87 593.425 454.968C593.425 456.066 594.314 456.956 595.411 456.956Z" fill="#2979FF"/>
<path d="M595.411 438.496C596.508 438.496 597.397 437.606 597.397 436.508C597.397 435.41 596.508 434.52 595.411 434.52C594.314 434.52 593.425 435.41 593.425 436.508C593.425 437.606 594.314 438.496 595.411 438.496Z" fill="#2979FF"/>
<path d="M595.411 420.036C596.508 420.036 597.397 419.146 597.397 418.048C597.397 416.95 596.508 416.06 595.411 416.06C594.314 416.06 593.425 416.95 593.425 418.048C593.425 419.146 594.314 420.036 595.411 420.036Z" fill="#2979FF"/>
<path d="M1719.95 329.298C1721.05 329.298 1721.94 328.408 1721.94 327.31C1721.94 326.212 1721.05 325.322 1719.95 325.322C1718.85 325.322 1717.96 326.212 1717.96 327.31C1717.96 328.408 1718.85 329.298 1719.95 329.298Z" fill="#4A4F52"/>
<path d="M1738.39 329.298C1739.49 329.298 1740.38 328.408 1740.38 327.31C1740.38 326.212 1739.49 325.322 1738.39 325.322C1737.3 325.322 1736.41 326.212 1736.41 327.31C1736.41 328.408 1737.3 329.298 1738.39 329.298Z" fill="#4A4F52"/>
<path d="M1756.84 329.298C1757.94 329.298 1758.82 328.408 1758.82 327.31C1758.82 326.212 1757.94 325.322 1756.84 325.322C1755.74 325.322 1754.85 326.212 1754.85 327.31C1754.85 328.408 1755.74 329.298 1756.84 329.298Z" fill="#4A4F52"/>
<path d="M1775.28 329.298C1776.38 329.298 1777.27 328.408 1777.27 327.31C1777.27 326.212 1776.38 325.322 1775.28 325.322C1774.19 325.322 1773.3 326.212 1773.3 327.31C1773.3 328.408 1774.19 329.298 1775.28 329.298Z" fill="#4A4F52"/>
<path d="M1719.95 347.758C1721.05 347.758 1721.94 346.868 1721.94 345.77C1721.94 344.672 1721.05 343.782 1719.95 343.782C1718.85 343.782 1717.96 344.672 1717.96 345.77C1717.96 346.868 1718.85 347.758 1719.95 347.758Z" fill="#4A4F52"/>
<path d="M1738.39 347.758C1739.49 347.758 1740.38 346.868 1740.38 345.77C1740.38 344.672 1739.49 343.782 1738.39 343.782C1737.3 343.782 1736.41 344.672 1736.41 345.77C1736.41 346.868 1737.3 347.758 1738.39 347.758Z" fill="#4A4F52"/>
<path d="M1756.84 347.758C1757.94 347.758 1758.82 346.868 1758.82 345.77C1758.82 344.672 1757.94 343.782 1756.84 343.782C1755.74 343.782 1754.85 344.672 1754.85 345.77C1754.85 346.868 1755.74 347.758 1756.84 347.758Z" fill="#4A4F52"/>
<path d="M1775.28 347.758C1776.38 347.758 1777.27 346.868 1777.27 345.77C1777.27 344.672 1776.38 343.782 1775.28 343.782C1774.19 343.782 1773.3 344.672 1773.3 345.77C1773.3 346.868 1774.19 347.758 1775.28 347.758Z" fill="#4A4F52"/>
<path d="M1719.95 366.218C1721.05 366.218 1721.94 365.328 1721.94 364.23C1721.94 363.132 1721.05 362.242 1719.95 362.242C1718.85 362.242 1717.96 363.132 1717.96 364.23C1717.96 365.328 1718.85 366.218 1719.95 366.218Z" fill="#4A4F52"/>
<path d="M1738.39 366.218C1739.49 366.218 1740.38 365.328 1740.38 364.23C1740.38 363.132 1739.49 362.242 1738.39 362.242C1737.3 362.242 1736.41 363.132 1736.41 364.23C1736.41 365.328 1737.3 366.218 1738.39 366.218Z" fill="#4A4F52"/>
<path d="M1756.84 366.218C1757.94 366.218 1758.82 365.328 1758.82 364.23C1758.82 363.132 1757.94 362.242 1756.84 362.242C1755.74 362.242 1754.85 363.132 1754.85 364.23C1754.85 365.328 1755.74 366.218 1756.84 366.218Z" fill="#4A4F52"/>
<path d="M1775.28 366.218C1776.38 366.218 1777.27 365.328 1777.27 364.23C1777.27 363.132 1776.38 362.242 1775.28 362.242C1774.19 362.242 1773.3 363.132 1773.3 364.23C1773.3 365.328 1774.19 366.218 1775.28 366.218Z" fill="#4A4F52"/>
<path d="M1719.95 384.678C1721.05 384.678 1721.94 383.788 1721.94 382.69C1721.94 381.592 1721.05 380.702 1719.95 380.702C1718.85 380.702 1717.96 381.592 1717.96 382.69C1717.96 383.788 1718.85 384.678 1719.95 384.678Z" fill="#4A4F52"/>
<path d="M1738.39 384.678C1739.49 384.678 1740.38 383.788 1740.38 382.69C1740.38 381.592 1739.49 380.702 1738.39 380.702C1737.3 380.702 1736.41 381.592 1736.41 382.69C1736.41 383.788 1737.3 384.678 1738.39 384.678Z" fill="#4A4F52"/>
<path d="M1756.84 384.678C1757.94 384.678 1758.82 383.788 1758.82 382.69C1758.82 381.592 1757.94 380.702 1756.84 380.702C1755.74 380.702 1754.85 381.592 1754.85 382.69C1754.85 383.788 1755.74 384.678 1756.84 384.678Z" fill="#4A4F52"/>
<path d="M1775.28 384.678C1776.38 384.678 1777.27 383.788 1777.27 382.69C1777.27 381.592 1776.38 380.702 1775.28 380.702C1774.19 380.702 1773.3 381.592 1773.3 382.69C1773.3 383.788 1774.19 384.678 1775.28 384.678Z" fill="#4A4F52"/>
<path d="M1599.64 644.112C1598.93 643.402 1598.93 642.124 1599.64 641.414C1600.34 640.704 1601.62 640.704 1602.33 641.414C1603.04 642.124 1603.04 643.402 1602.33 644.112C1601.62 644.822 1600.34 644.822 1599.64 644.112Z" fill="#4A4F52"/>
<path d="M1586.58 657.176C1585.87 656.466 1585.87 655.188 1586.58 654.478C1587.29 653.768 1588.57 653.768 1589.28 654.478C1589.99 655.188 1589.99 656.466 1589.28 657.176C1588.57 657.886 1587.29 657.886 1586.58 657.176Z" fill="#4A4F52"/>
<path d="M1573.53 670.098C1572.82 669.388 1572.82 668.11 1573.53 667.4C1574.24 666.69 1575.52 666.69 1576.23 667.4C1576.93 668.11 1576.93 669.388 1576.23 670.098C1575.52 670.95 1574.24 670.95 1573.53 670.098Z" fill="#4A4F52"/>
<path d="M1560.48 683.162C1559.77 682.452 1559.77 681.174 1560.48 680.464C1561.19 679.754 1562.46 679.754 1563.17 680.464C1563.88 681.174 1563.88 682.452 1563.17 683.162C1562.46 684.014 1561.19 684.014 1560.48 683.162Z" fill="#4A4F52"/>
<path d="M1587.86 631.616C1588.96 631.616 1589.85 630.726 1589.85 629.628C1589.85 628.53 1588.96 627.64 1587.86 627.64C1586.76 627.64 1585.87 628.53 1585.87 629.628C1585.87 630.726 1586.76 631.616 1587.86 631.616Z" fill="#4A4F52"/>
<path d="M1573.53 644.112C1572.82 643.402 1572.82 642.124 1573.53 641.414C1574.24 640.704 1575.52 640.704 1576.23 641.414C1576.93 642.124 1576.93 643.402 1576.23 644.112C1575.52 644.822 1574.24 644.822 1573.53 644.112Z" fill="#4A4F52"/>
<path d="M1560.48 657.176C1559.77 656.466 1559.77 655.188 1560.48 654.478C1561.19 653.768 1562.46 653.768 1563.17 654.478C1563.88 655.188 1563.88 656.466 1563.17 657.176C1562.46 657.886 1561.19 657.886 1560.48 657.176Z" fill="#4A4F52"/>
<path d="M1547.42 670.098C1546.71 669.388 1546.71 668.11 1547.42 667.4C1548.13 666.69 1549.41 666.69 1550.12 667.4C1550.83 668.11 1550.83 669.388 1550.12 670.098C1549.41 670.95 1548.13 670.95 1547.42 670.098Z" fill="#4A4F52"/>
<path d="M1573.53 617.984C1572.82 617.274 1572.82 615.996 1573.53 615.286C1574.24 614.576 1575.52 614.576 1576.23 615.286C1576.93 615.996 1576.93 617.274 1576.23 617.984C1575.52 618.694 1574.24 618.694 1573.53 617.984Z" fill="#4A4F52"/>
<path d="M1561.9 631.616C1562.99 631.616 1563.88 630.726 1563.88 629.628C1563.88 628.53 1562.99 627.64 1561.9 627.64C1560.8 627.64 1559.91 628.53 1559.91 629.628C1559.91 630.726 1560.8 631.616 1561.9 631.616Z" fill="#4A4F52"/>
<path d="M1547.42 644.112C1546.71 643.402 1546.71 642.124 1547.42 641.414C1548.13 640.704 1549.41 640.704 1550.12 641.414C1550.83 642.124 1550.83 643.402 1550.12 644.112C1549.41 644.822 1548.13 644.822 1547.42 644.112Z" fill="#4A4F52"/>
<path d="M1534.37 657.176C1533.66 656.466 1533.66 655.188 1534.37 654.478C1535.08 653.768 1536.36 653.768 1537.07 654.478C1537.78 655.188 1537.78 656.466 1537.07 657.176C1536.36 657.886 1535.08 657.886 1534.37 657.176Z" fill="#4A4F52"/>
<path d="M1560.48 604.92C1559.77 604.21 1559.77 602.932 1560.48 602.222C1561.19 601.512 1562.46 601.512 1563.17 602.222C1563.88 602.932 1563.88 604.21 1563.17 604.92C1562.46 605.63 1561.19 605.63 1560.48 604.92Z" fill="#4A4F52"/>
<path d="M1547.42 617.984C1546.71 617.274 1546.71 615.996 1547.42 615.286C1548.13 614.576 1549.41 614.576 1550.12 615.286C1550.83 615.996 1550.83 617.274 1550.12 617.984C1549.41 618.694 1548.13 618.694 1547.42 617.984Z" fill="#4A4F52"/>
<path d="M1534.37 631.048C1533.66 630.338 1533.66 629.06 1534.37 628.35C1535.08 627.64 1536.36 627.64 1537.07 628.35C1537.78 629.06 1537.78 630.338 1537.07 631.048C1536.36 631.758 1535.08 631.758 1534.37 631.048Z" fill="#4A4F52"/>
<path d="M1521.32 644.112C1520.61 643.402 1520.61 642.124 1521.32 641.414C1522.03 640.704 1523.3 640.704 1524.01 641.414C1524.72 642.124 1524.72 643.402 1524.01 644.112C1523.3 644.822 1522.03 644.822 1521.32 644.112Z" fill="#4A4F52"/>
<path d="M133.369 122.138C132.66 121.428 132.66 120.15 133.369 119.44C134.079 118.73 135.355 118.73 136.065 119.44C136.774 120.15 136.774 121.428 136.065 122.138C135.355 122.848 134.079 122.848 133.369 122.138Z" fill="#4A4F52"/>
<path d="M120.316 135.202C119.607 134.492 119.607 133.214 120.316 132.504C121.026 131.794 122.303 131.794 123.012 132.504C123.721 133.214 123.721 134.492 123.012 135.202C122.303 135.912 121.026 135.912 120.316 135.202Z" fill="#4A4F52"/>
<path d="M107.263 148.124C106.554 147.414 106.554 146.136 107.263 145.426C107.973 144.716 109.25 144.716 109.959 145.426C110.669 146.136 110.669 147.414 109.959 148.124C109.25 148.976 107.973 148.976 107.263 148.124Z" fill="#4A4F52"/>
<path d="M94.2103 161.188C93.5009 160.478 93.5009 159.2 94.2103 158.49C94.9197 157.78 96.1966 157.78 96.906 158.49C97.6153 159.2 97.6153 160.478 96.906 161.188C96.1966 162.04 94.9197 162.04 94.2103 161.188Z" fill="#4A4F52"/>
<path d="M121.593 109.642C122.69 109.642 123.579 108.752 123.579 107.654C123.579 106.556 122.69 105.666 121.593 105.666C120.496 105.666 119.607 106.556 119.607 107.654C119.607 108.752 120.496 109.642 121.593 109.642Z" fill="#4A4F52"/>
<path d="M107.263 122.138C106.554 121.428 106.554 120.15 107.263 119.44C107.973 118.73 109.25 118.73 109.959 119.44C110.669 120.15 110.669 121.428 109.959 122.138C109.25 122.848 107.973 122.848 107.263 122.138Z" fill="#4A4F52"/>
<path d="M94.2103 135.202C93.5009 134.492 93.5009 133.214 94.2103 132.504C94.9197 131.794 96.1966 131.794 96.906 132.504C97.6153 133.214 97.6153 134.492 96.906 135.202C96.1966 135.912 94.9197 135.912 94.2103 135.202Z" fill="#4A4F52"/>
<path d="M81.1574 148.124C80.448 147.414 80.448 146.136 81.1574 145.426C81.8668 144.716 83.1438 144.716 83.8532 145.426C84.5626 146.136 84.5626 147.414 83.8532 148.124C83.1438 148.976 81.8668 148.976 81.1574 148.124Z" fill="#4A4F52"/>
<path d="M107.263 96.0101C106.554 95.3001 106.554 94.022 107.263 93.312C107.973 92.602 109.25 92.602 109.959 93.312C110.669 94.022 110.669 95.3001 109.959 96.0101C109.25 96.7201 107.973 96.7201 107.263 96.0101Z" fill="#4A4F52"/>
<path d="M95.6292 109.642C96.7261 109.642 97.6154 108.752 97.6154 107.654C97.6154 106.556 96.7261 105.666 95.6292 105.666C94.5322 105.666 93.6429 106.556 93.6429 107.654C93.6429 108.752 94.5322 109.642 95.6292 109.642Z" fill="#4A4F52"/>
<path d="M81.1574 122.138C80.448 121.428 80.448 120.15 81.1574 119.44C81.8668 118.73 83.1438 118.73 83.8532 119.44C84.5626 120.15 84.5626 121.428 83.8532 122.138C83.1438 122.848 81.8668 122.848 81.1574 122.138Z" fill="#4A4F52"/>
<path d="M68.1044 135.202C67.395 134.492 67.395 133.214 68.1044 132.504C68.8138 131.794 70.0907 131.794 70.8001 132.504C71.5095 133.214 71.5095 134.492 70.8001 135.202C70.0907 135.912 68.8138 135.912 68.1044 135.202Z" fill="#4A4F52"/>
<path d="M94.2103 82.9461C93.5009 82.2361 93.5009 80.9581 94.2103 80.2481C94.9197 79.5381 96.1966 79.5381 96.906 80.2481C97.6153 80.9581 97.6153 82.2361 96.906 82.9461C96.1966 83.6561 94.9197 83.6561 94.2103 82.9461Z" fill="#4A4F52"/>
<path d="M81.1574 96.0101C80.448 95.3001 80.448 94.022 81.1574 93.312C81.8668 92.602 83.1438 92.602 83.8532 93.312C84.5626 94.022 84.5626 95.3001 83.8532 96.0101C83.1438 96.7201 81.8668 96.7201 81.1574 96.0101Z" fill="#4A4F52"/>
<path d="M68.1044 109.074C67.395 108.364 67.395 107.086 68.1044 106.376C68.8138 105.666 70.0907 105.666 70.8001 106.376C71.5095 107.086 71.5095 108.364 70.8001 109.074C70.0907 109.784 68.8138 109.784 68.1044 109.074Z" fill="#4A4F52"/>
<path d="M55.0514 122.138C54.342 121.428 54.342 120.15 55.0514 119.44C55.7608 118.73 57.0378 118.73 57.7472 119.44C58.4566 120.15 58.4566 121.428 57.7472 122.138C57.0378 122.848 55.7608 122.848 55.0514 122.138Z" fill="#4A4F52"/>
<path d="M1927.26 436L1623 740.522" stroke="#2979FF" stroke-miterlimit="10"/>
<path d="M1927.26 452.587L1639.57 740.522" stroke="#2979FF" stroke-miterlimit="10"/>
<path d="M1927.26 469.013L1655.98 740.522" stroke="#2979FF" stroke-miterlimit="10"/>
<path d="M1927.26 485.6L1672.56 740.522" stroke="#2979FF" stroke-miterlimit="10"/>
<path d="M1927.26 502.025L1688.97 740.522" stroke="#2979FF" stroke-miterlimit="10"/>
</svg>
