<svg width="1920" height="756" viewBox="0 0 1920 756" fill="none" xmlns="http://www.w3.org/2000/svg">
<g clip-path="url(#clip0_1650_222)">
<path d="M1694.62 110L1666 138.643L1694.62 167.286L1723.24 138.643L1694.62 110Z" fill="#2979FF"/>
<path d="M459.85 338.422C459.14 337.712 459.14 336.434 459.85 335.725C460.559 335.015 461.836 335.015 462.546 335.725C463.255 336.434 463.255 337.712 462.546 338.422C461.836 339.132 460.559 339.132 459.85 338.422Z" fill="#2979FF"/>
<path d="M446.797 351.486C446.088 350.776 446.088 349.498 446.797 348.788C447.506 348.078 448.783 348.078 449.493 348.788C450.202 349.498 450.202 350.776 449.493 351.486C448.783 352.196 447.506 352.196 446.797 351.486Z" fill="#2979FF"/>
<path d="M433.744 364.408C433.034 363.698 433.034 362.42 433.744 361.71C434.453 361 435.73 361 436.44 361.71C437.149 362.42 437.149 363.698 436.44 364.408C435.73 365.261 434.453 365.261 433.744 364.408Z" fill="#2979FF"/>
<path d="M420.691 377.473C419.982 376.763 419.982 375.484 420.691 374.774C421.4 374.064 422.677 374.064 423.387 374.774C424.096 375.484 424.096 376.763 423.387 377.473C422.677 378.325 421.4 378.325 420.691 377.473Z" fill="#2979FF"/>
<path d="M448.074 325.926C449.171 325.926 450.06 325.036 450.06 323.938C450.06 322.84 449.171 321.95 448.074 321.95C446.977 321.95 446.087 322.84 446.087 323.938C446.087 325.036 446.977 325.926 448.074 325.926Z" fill="#2979FF"/>
<path d="M433.744 338.422C433.034 337.712 433.034 336.434 433.744 335.725C434.453 335.015 435.73 335.015 436.44 335.725C437.149 336.434 437.149 337.712 436.44 338.422C435.73 339.132 434.453 339.132 433.744 338.422Z" fill="#2979FF"/>
<path d="M420.691 351.486C419.982 350.776 419.982 349.498 420.691 348.788C421.4 348.078 422.677 348.078 423.387 348.788C424.096 349.498 424.096 350.776 423.387 351.486C422.677 352.196 421.4 352.196 420.691 351.486Z" fill="#2979FF"/>
<path d="M407.638 364.408C406.929 363.698 406.929 362.42 407.638 361.71C408.348 361 409.625 361 410.334 361.71C411.043 362.42 411.043 363.698 410.334 364.408C409.625 365.261 408.348 365.261 407.638 364.408Z" fill="#2979FF"/>
<path d="M433.744 312.295C433.034 311.585 433.034 310.306 433.744 309.596C434.453 308.886 435.73 308.886 436.44 309.596C437.149 310.306 437.149 311.585 436.44 312.295C435.73 313.005 434.453 313.005 433.744 312.295Z" fill="#2979FF"/>
<path d="M422.11 325.926C423.207 325.926 424.096 325.036 424.096 323.938C424.096 322.84 423.207 321.95 422.11 321.95C421.013 321.95 420.124 322.84 420.124 323.938C420.124 325.036 421.013 325.926 422.11 325.926Z" fill="#2979FF"/>
<path d="M407.638 338.422C406.929 337.712 406.929 336.434 407.638 335.725C408.348 335.015 409.625 335.015 410.334 335.725C411.043 336.434 411.043 337.712 410.334 338.422C409.625 339.132 408.348 339.132 407.638 338.422Z" fill="#2979FF"/>
<path d="M394.585 351.486C393.876 350.776 393.876 349.498 394.585 348.788C395.295 348.078 396.571 348.078 397.281 348.788C397.99 349.498 397.99 350.776 397.281 351.486C396.571 352.196 395.295 352.196 394.585 351.486Z" fill="#2979FF"/>
<path d="M420.691 299.231C419.982 298.521 419.982 297.243 420.691 296.533C421.4 295.822 422.677 295.822 423.387 296.533C424.096 297.243 424.096 298.521 423.387 299.231C422.677 299.941 421.4 299.941 420.691 299.231Z" fill="#2979FF"/>
<path d="M407.638 312.295C406.929 311.585 406.929 310.306 407.638 309.596C408.348 308.886 409.625 308.886 410.334 309.596C411.043 310.306 411.043 311.585 410.334 312.295C409.625 313.005 408.348 313.005 407.638 312.295Z" fill="#2979FF"/>
<path d="M394.585 325.358C393.876 324.649 393.876 323.371 394.585 322.661C395.295 321.951 396.571 321.951 397.281 322.661C397.99 323.371 397.99 324.649 397.281 325.358C396.571 326.068 395.295 326.068 394.585 325.358Z" fill="#2979FF"/>
<path d="M381.532 338.422C380.823 337.712 380.823 336.434 381.532 335.725C382.242 335.015 383.518 335.015 384.228 335.725C384.937 336.434 384.937 337.712 384.228 338.422C383.518 339.132 382.242 339.132 381.532 338.422Z" fill="#2979FF"/>
<g opacity="0.6">
<path opacity="0.6" d="M2005 175.388L1307.39 873" stroke="#B9BCC3" stroke-width="0.5" stroke-miterlimit="10"/>
<path opacity="0.6" d="M2005 143.607L1275.61 873" stroke="#B9BCC3" stroke-width="0.5" stroke-miterlimit="10"/>
<path opacity="0.6" d="M2005 111.825L1243.83 873" stroke="#B9BCC3" stroke-width="0.5" stroke-miterlimit="10"/>
<path opacity="0.6" d="M2005 79.7813L1211.78 873" stroke="#B9BCC3" stroke-width="0.5" stroke-miterlimit="10"/>
<path opacity="0.6" d="M2005 48L1180 873" stroke="#B9BCC3" stroke-width="0.5" stroke-miterlimit="10"/>
</g>
<path d="M0 186V110.901L110.901 0H186L0 186Z" fill="#F1F1F1"/>
<path d="M0 20.4603V0H42.9167L158.344 115.65L273.662 0H337L158.344 179L0 20.4603Z" fill="#2979FF"/>
</g>
<defs>
<clipPath id="clip0_1650_222">
<rect width="1927" height="758" fill="white" transform="translate(0 -2)"/>
</clipPath>
</defs>
</svg>
