<svg width="402" height="45" viewBox="0 0 402 45" fill="none" xmlns="http://www.w3.org/2000/svg">
<path d="M136.777 0.34552H140.901C143.96 0.34552 145.971 2.19681 145.971 5.05357C145.971 7.91032 144.019 9.99511 140.811 9.99511H136.779L136.777 0.34552ZM138.911 8.40825H140.709C142.81 8.40825 143.754 6.99059 143.754 5.07259C143.754 3.4405 142.876 1.94186 140.72 1.94186H138.911V8.40825Z" fill="#212121"/>
<path d="M151.041 0.34552V9.99511H148.907V0.34552H151.041Z" fill="#212121"/>
<path d="M163.596 9.9951H162.019C161.926 9.66547 161.87 9.32675 161.85 8.98488C161.286 9.69966 160.273 10.1523 158.732 10.1523C155.668 10.1523 153.97 8.03659 153.97 5.28706C153.97 2.3898 155.801 0.207306 159.106 0.207306C161.784 0.207306 163.375 1.5773 163.638 3.2356H161.504C161.267 2.52082 160.657 1.74885 159.083 1.74885C156.865 1.74885 156.187 3.41668 156.187 5.20126C156.187 6.91674 156.941 8.58694 159.085 8.58694C161.106 8.58694 161.504 7.31463 161.504 6.32584V6.23772H159.073V4.62707H163.596V9.9951Z" fill="#212121"/>
<path d="M169.012 0.34552V9.99511H166.878V0.34552H169.012Z" fill="#212121"/>
<path d="M174.727 1.95378H171.483V0.34552H180.113V1.95378H176.871V9.99511H174.737L174.727 1.95378Z" fill="#212121"/>
<path d="M183.17 7.65775L182.292 9.99511H180.186L183.805 0.34552H186.485L190.26 9.99511H188.007L187.09 7.65775H183.17ZM186.618 6.0471C185.826 3.92896 185.335 2.62092 185.083 1.77509H185.069C184.808 2.70431 184.265 4.23631 183.63 6.0471H186.618Z" fill="#212121"/>
<path d="M192.558 0.34552H194.693V8.38684H200L199.749 9.99511H192.554L192.558 0.34552Z" fill="#212121"/>
<path d="M136.777 17.1167H144.067V18.7298H138.868V21.2196H143.73V22.8278H138.868V26.7687H136.777V17.1167Z" fill="#212121"/>
<path d="M148.786 17.1167V22.8755C148.786 24.7982 149.881 25.3582 151.055 25.3582C152.409 25.3582 153.28 24.7077 153.28 22.8755V17.1167H155.414V22.7802C155.414 26.0515 153.334 26.9021 151.017 26.9021C148.662 26.9021 146.633 26.0086 146.633 22.8278V17.1096L148.786 17.1167Z" fill="#212121"/>
<path d="M161.106 18.7298H157.859V17.1191H166.482V18.7298H163.247V26.7687H161.113L161.106 18.7298Z" fill="#212121"/>
<path d="M171.135 17.1167V22.8755C171.135 24.7982 172.23 25.3582 173.406 25.3582C174.758 25.3582 175.628 24.7077 175.628 22.8755V17.1167H177.763V22.7802C177.763 26.0515 175.685 26.9021 173.368 26.9021C171.011 26.9021 168.981 26.0086 168.981 22.8278V17.1096L171.135 17.1167Z" fill="#212121"/>
<path d="M183.248 22.8422V26.7663H181.154V17.1167H185.714C187.996 17.1167 189.222 18.2628 189.222 19.7567C189.243 20.258 189.1 20.7524 188.814 21.1642C188.529 21.576 188.117 21.8825 187.642 22.0368C188.223 22.2179 189.006 22.7302 189.006 24.4504V24.9246C189.006 25.5774 189.006 26.3327 189.155 26.7759H187.123C186.936 26.3565 186.907 25.6298 186.907 24.6315V24.4814C186.907 23.3734 186.594 22.8588 184.861 22.8588L183.248 22.8422ZM183.248 21.2768H185.228C186.54 21.2768 187.059 20.8217 187.059 19.9687C187.059 19.1157 186.468 18.6821 185.299 18.6821H183.248V21.2768Z" fill="#212121"/>
<path d="M199.388 22.5419H194.299V25.1628H199.908L199.651 26.7711H192.222V17.1215H199.614V18.7298H194.299V20.9408H199.388V22.5419Z" fill="#212121"/>
<path d="M145.869 43.5376H144.304C144.211 43.2082 144.155 42.8692 144.138 42.5273C143.571 43.2421 142.561 43.6948 141.019 43.6948C137.953 43.6948 136.255 41.579 136.255 38.8319C136.255 35.9322 138.086 33.7498 141.394 33.7498C144.069 33.7498 145.663 35.1197 145.923 36.778H143.789C143.552 36.0633 142.943 35.2913 141.368 35.2913C139.151 35.2913 138.472 36.9591 138.472 38.7437C138.472 40.4592 139.226 42.1294 141.37 42.1294C143.391 42.1294 143.789 40.8595 143.789 39.8683V39.7802H141.347V38.1719H145.869V43.5376Z" fill="#212121"/>
<path d="M151.24 39.6133V43.5376H149.146V33.888H153.704C155.988 33.888 157.214 35.034 157.214 36.5279C157.235 37.0292 157.092 37.5236 156.807 37.9354C156.522 38.3472 156.11 38.6538 155.635 38.808C156.213 38.9891 156.998 39.5037 156.998 41.2216V41.6863C156.998 42.3391 156.998 43.0944 157.148 43.5376H155.113C154.928 43.1182 154.899 42.3915 154.899 41.3932V41.2431C154.899 40.1352 154.586 39.6205 152.85 39.6205L151.24 39.6133ZM151.24 38.048H153.218C154.529 38.048 155.049 37.5929 155.049 36.74C155.049 35.887 154.461 35.4533 153.292 35.4533H151.24V38.048Z" fill="#212121"/>
<path d="M169.842 38.677C169.842 41.3575 168.099 43.6805 164.684 43.6805C161.4 43.6805 159.664 41.4813 159.664 38.7151C159.664 35.9489 161.561 33.7522 164.826 33.7522C167.9 33.7402 169.842 35.7369 169.842 38.677ZM161.876 38.677C161.876 40.5831 162.825 42.0842 164.765 42.0842C166.868 42.0842 167.63 40.4831 167.63 38.708C167.63 36.84 166.764 35.3509 164.736 35.3509C162.747 35.3461 161.876 36.7638 161.876 38.6722V38.677Z" fill="#212121"/>
<path d="M174.808 33.888V39.6491C174.808 41.5695 175.904 42.1294 177.08 42.1294C178.432 42.1294 179.302 41.479 179.302 39.6491V33.888H181.436V39.5514C181.436 42.8227 179.356 43.6733 177.039 43.6733C174.685 43.6733 172.652 42.7799 172.652 39.5991V33.8808L174.808 33.888Z" fill="#212121"/>
<path d="M184.827 33.888H189.141C191.356 33.888 192.859 35.0268 192.859 36.8472C192.859 38.9081 191.164 39.8755 189.082 39.8755H186.971V43.5376H184.837L184.827 33.888ZM186.962 38.3101H188.821C189.943 38.3101 190.687 37.8931 190.687 36.8805C190.687 35.8679 189.883 35.4509 188.871 35.4509H186.962V38.3101Z" fill="#212121"/>
<path d="M26.6339 22.2465V23.3902L16.3228 35.084H9.36729V18.0817H0V44.4906H20.5606L35.9965 27.0689V18.0745H26.6339V22.2465Z" fill="#212121"/>
<path d="M25.5597 3.36905C22.3226 1.34468 18.6154 0.204688 14.8051 0.0619503C14.677 2.32904e-06 9.74199 0 0 0V9.53046H14.3616C14.6723 9.53046 14.9829 9.56382 15.2888 9.59479H32.0741C30.3446 7.0978 28.1283 4.97977 25.5597 3.36905Z" fill="#212121"/>
<path d="M43.59 44.4906H53.0142V27.1404H73.5131V18.0817H43.59V44.4906Z" fill="#212121"/>
<path d="M73.5107 0.0619507H43.6516V9.59479H73.5107V0.0619507Z" fill="#212121"/>
<path d="M112.699 9.59718V0H97.1376L88.4865 9.59718H101.439H112.699Z" fill="#212121"/>
<path d="M80.8385 18.0817L79.5508 19.5113V23.3902C79.5302 27.2072 80.5824 30.9524 82.5863 34.1953C84.5965 37.4764 87.4047 40.1896 90.7465 42.0794C94.0666 43.9931 97.8276 45 101.655 45C105.483 45 109.244 43.9931 112.564 42.0794C115.891 40.1651 118.678 37.4303 120.66 34.1333C122.675 30.8826 123.796 27.1535 123.909 23.3258V18.3033H101.691V27.331H113.396C112.889 29.6183 111.497 31.5244 109.22 33.0493C106.993 34.548 104.371 35.3452 101.691 35.339C99.5364 35.3416 97.4197 34.7711 95.5559 33.6854C93.6905 32.6378 92.1224 31.1288 91.0003 29.3014C89.827 27.4825 89.1906 25.3669 89.1648 23.1995L93.7915 18.0817H80.8385Z" fill="#212121"/>
<path d="M218.125 31H215.881V23.7273H218.224C218.93 23.7273 219.534 23.8729 220.036 24.1641C220.537 24.4529 220.922 24.8684 221.19 25.4105C221.457 25.9503 221.591 26.5966 221.591 27.3494C221.591 28.107 221.456 28.7592 221.186 29.3061C220.916 29.8506 220.523 30.2696 220.007 30.5632C219.491 30.8544 218.864 31 218.125 31ZM216.761 30.2188H218.068C218.67 30.2188 219.168 30.1027 219.563 29.8707C219.959 29.6387 220.253 29.3085 220.447 28.88C220.642 28.4515 220.739 27.9413 220.739 27.3494C220.739 26.7623 220.643 26.2569 220.451 25.8331C220.259 25.407 219.973 25.0803 219.592 24.853C219.21 24.6233 218.736 24.5085 218.168 24.5085H216.761V30.2188ZM223.068 31V23.7273H227.429V24.5085H223.949V26.9659H227.102V27.7472H223.949V31H223.068ZM233.909 26C233.831 25.7609 233.728 25.5466 233.6 25.3572C233.474 25.1655 233.324 25.0021 233.149 24.8672C232.976 24.7322 232.78 24.6293 232.559 24.5582C232.339 24.4872 232.098 24.4517 231.835 24.4517C231.404 24.4517 231.012 24.563 230.66 24.7855C230.307 25.008 230.026 25.3359 229.818 25.7692C229.61 26.2024 229.506 26.7339 229.506 27.3636C229.506 27.9934 229.611 28.5249 229.822 28.9581C230.032 29.3913 230.318 29.7192 230.677 29.9418C231.037 30.1643 231.442 30.2756 231.892 30.2756C232.309 30.2756 232.675 30.1868 232.993 30.0092C233.312 29.8293 233.561 29.576 233.738 29.2493C233.918 28.9202 234.008 28.5331 234.008 28.0881L234.278 28.1449H232.091V27.3636H234.861V28.1449C234.861 28.7438 234.733 29.2647 234.477 29.7074C234.224 30.1501 233.873 30.4934 233.426 30.7372C232.981 30.9787 232.47 31.0994 231.892 31.0994C231.248 31.0994 230.682 30.9479 230.194 30.6449C229.709 30.3419 229.33 29.911 229.058 29.3523C228.788 28.7936 228.653 28.1307 228.653 27.3636C228.653 26.7884 228.73 26.2711 228.884 25.8118C229.04 25.3501 229.26 24.9571 229.545 24.6328C229.829 24.3085 230.165 24.0599 230.553 23.8871C230.941 23.7143 231.369 23.6278 231.835 23.6278C232.219 23.6278 232.576 23.6858 232.907 23.8018C233.241 23.9155 233.538 24.0777 233.799 24.2884C234.062 24.4967 234.281 24.7464 234.456 25.0376C234.631 25.3265 234.752 25.6473 234.818 26H233.909ZM239.068 31V25.5455H239.906V31H239.068ZM239.494 24.6364C239.331 24.6364 239.19 24.5807 239.071 24.4695C238.955 24.3582 238.897 24.2244 238.897 24.0682C238.897 23.9119 238.955 23.7782 239.071 23.6669C239.19 23.5556 239.331 23.5 239.494 23.5C239.657 23.5 239.797 23.5556 239.913 23.6669C240.031 23.7782 240.091 23.9119 240.091 24.0682C240.091 24.2244 240.031 24.3582 239.913 24.4695C239.797 24.5807 239.657 24.6364 239.494 24.6364ZM245.305 26.767L244.552 26.9801C244.504 26.8546 244.434 26.7327 244.342 26.6143C244.252 26.4936 244.129 26.3942 243.973 26.3161C243.817 26.2379 243.617 26.1989 243.373 26.1989C243.039 26.1989 242.761 26.2758 242.538 26.4297C242.318 26.5812 242.208 26.7741 242.208 27.0085C242.208 27.2169 242.284 27.3814 242.435 27.5021C242.587 27.6229 242.823 27.7235 243.145 27.804L243.955 28.0028C244.443 28.1212 244.806 28.3023 245.045 28.5462C245.284 28.7876 245.404 29.099 245.404 29.4801C245.404 29.7926 245.314 30.072 245.134 30.3182C244.956 30.5644 244.708 30.7585 244.388 30.9006C244.069 31.0426 243.697 31.1136 243.273 31.1136C242.717 31.1136 242.256 30.9929 241.892 30.7514C241.527 30.5099 241.296 30.1572 241.199 29.6932L241.995 29.4943C242.071 29.7879 242.214 30.008 242.425 30.1548C242.638 30.3016 242.916 30.375 243.259 30.375C243.65 30.375 243.96 30.2921 244.189 30.1264C244.421 29.9583 244.537 29.7571 244.537 29.5227C244.537 29.3333 244.471 29.1747 244.339 29.0469C244.206 28.9167 244.002 28.8196 243.728 28.7557L242.819 28.5426C242.319 28.4242 241.952 28.2408 241.718 27.9922C241.486 27.7412 241.37 27.4276 241.37 27.0511C241.37 26.7434 241.456 26.4711 241.629 26.2344C241.804 25.9976 242.042 25.8118 242.343 25.6768C242.646 25.5419 242.989 25.4744 243.373 25.4744C243.912 25.4744 244.336 25.5928 244.644 25.8295C244.954 26.0663 245.174 26.3788 245.305 26.767ZM251.083 31.1278C250.737 31.1278 250.424 31.0627 250.142 30.9325C249.86 30.8 249.637 30.6094 249.471 30.3608C249.305 30.1098 249.222 29.8068 249.222 29.4517C249.222 29.1392 249.284 28.8859 249.407 28.6918C249.53 28.4953 249.695 28.3414 249.901 28.2301C250.107 28.1188 250.334 28.036 250.582 27.9815C250.833 27.9247 251.085 27.8797 251.339 27.8466C251.67 27.804 251.939 27.772 252.145 27.7507C252.353 27.727 252.505 27.688 252.599 27.6335C252.696 27.5791 252.745 27.4844 252.745 27.3494V27.321C252.745 26.9706 252.649 26.6984 252.457 26.5043C252.268 26.3101 251.98 26.2131 251.594 26.2131C251.194 26.2131 250.881 26.3007 250.653 26.4759C250.426 26.651 250.266 26.8381 250.174 27.0369L249.379 26.7528C249.521 26.4214 249.71 26.1634 249.947 25.9787C250.186 25.7917 250.446 25.6615 250.728 25.5881C251.012 25.5123 251.291 25.4744 251.566 25.4744C251.741 25.4744 251.942 25.4957 252.17 25.5384C252.399 25.5786 252.621 25.6626 252.834 25.7905C253.049 25.9183 253.228 26.1113 253.37 26.3693C253.512 26.6274 253.583 26.973 253.583 27.4062V31H252.745V30.2614H252.702C252.646 30.3797 252.551 30.5064 252.418 30.6413C252.286 30.7763 252.109 30.8911 251.889 30.9858C251.669 31.0805 251.4 31.1278 251.083 31.1278ZM251.211 30.375C251.542 30.375 251.822 30.3099 252.049 30.1797C252.279 30.0495 252.451 29.8814 252.567 29.6754C252.686 29.4695 252.745 29.2528 252.745 29.0256V28.2585C252.71 28.3011 252.631 28.3402 252.511 28.3757C252.392 28.4089 252.255 28.4384 252.099 28.4645C251.945 28.4882 251.795 28.5095 251.648 28.5284C251.503 28.545 251.386 28.5592 251.296 28.571C251.078 28.5994 250.875 28.6456 250.685 28.7095C250.498 28.7711 250.347 28.8646 250.231 28.9901C250.117 29.1132 250.06 29.2812 250.06 29.4943C250.06 29.7855 250.168 30.0057 250.384 30.1548C250.601 30.3016 250.877 30.375 251.211 30.375ZM258.763 27.7188V31H257.925V23.7273H258.763V26.3977H258.834C258.962 26.116 259.154 25.8923 259.41 25.7266C259.668 25.5585 260.011 25.4744 260.439 25.4744C260.811 25.4744 261.137 25.549 261.416 25.6982C261.695 25.8449 261.912 26.071 262.066 26.3764C262.222 26.6795 262.3 27.0653 262.3 27.5341V31H261.462V27.5909C261.462 27.1577 261.35 26.8227 261.125 26.5859C260.902 26.3468 260.593 26.2273 260.198 26.2273C259.923 26.2273 259.677 26.2853 259.459 26.4013C259.244 26.5173 259.073 26.6866 258.948 26.9091C258.825 27.1316 258.763 27.4015 258.763 27.7188ZM266.049 31.1136C265.557 31.1136 265.125 30.9964 264.753 30.7621C264.384 30.5277 264.095 30.1998 263.887 29.7784C263.681 29.357 263.578 28.8646 263.578 28.3011C263.578 27.733 263.681 27.237 263.887 26.8132C264.095 26.3894 264.384 26.0604 264.753 25.826C265.125 25.5916 265.557 25.4744 266.049 25.4744C266.542 25.4744 266.973 25.5916 267.342 25.826C267.714 26.0604 268.002 26.3894 268.208 26.8132C268.417 27.237 268.521 27.733 268.521 28.3011C268.521 28.8646 268.417 29.357 268.208 29.7784C268.002 30.1998 267.714 30.5277 267.342 30.7621C266.973 30.9964 266.542 31.1136 266.049 31.1136ZM266.049 30.3608C266.423 30.3608 266.731 30.2649 266.973 30.0732C267.214 29.8814 267.393 29.6293 267.509 29.3168C267.625 29.0043 267.683 28.6657 267.683 28.3011C267.683 27.9366 267.625 27.5968 267.509 27.282C267.393 26.9671 267.214 26.7126 266.973 26.5185C266.731 26.3243 266.423 26.2273 266.049 26.2273C265.675 26.2273 265.368 26.3243 265.126 26.5185C264.885 26.7126 264.706 26.9671 264.59 27.282C264.474 27.5968 264.416 27.9366 264.416 28.3011C264.416 28.6657 264.474 29.0043 264.59 29.3168C264.706 29.6293 264.885 29.8814 265.126 30.0732C265.368 30.2649 265.675 30.3608 266.049 30.3608ZM270.638 23.7273V31H269.8V23.7273H270.638ZM274.233 31.1136C273.778 31.1136 273.377 30.9988 273.029 30.7692C272.681 30.5372 272.409 30.2105 272.212 29.7891C272.016 29.3653 271.918 28.8646 271.918 28.2869C271.918 27.714 272.016 27.2169 272.212 26.7955C272.409 26.3741 272.682 26.0485 273.033 25.8189C273.383 25.5893 273.788 25.4744 274.247 25.4744C274.602 25.4744 274.883 25.5336 275.089 25.652C275.297 25.768 275.456 25.9006 275.565 26.0497C275.676 26.1965 275.762 26.3172 275.824 26.4119H275.895V23.7273H276.733V31H275.923V30.1619H275.824C275.762 30.2614 275.675 30.3868 275.561 30.5384C275.447 30.6875 275.285 30.8213 275.075 30.9396C274.864 31.0556 274.583 31.1136 274.233 31.1136ZM274.347 30.3608C274.683 30.3608 274.967 30.2732 275.199 30.098C275.431 29.9205 275.607 29.6754 275.728 29.3629C275.849 29.0481 275.909 28.6847 275.909 28.2727C275.909 27.8655 275.85 27.5092 275.732 27.2038C275.613 26.8961 275.438 26.657 275.206 26.4865C274.974 26.3137 274.688 26.2273 274.347 26.2273C273.991 26.2273 273.696 26.3184 273.459 26.5007C273.224 26.6806 273.048 26.9257 272.93 27.2358C272.814 27.5436 272.756 27.8892 272.756 28.2727C272.756 28.661 272.815 29.0137 272.933 29.331C273.054 29.6458 273.232 29.8968 273.466 30.0838C273.703 30.2685 273.996 30.3608 274.347 30.3608ZM278.384 31V25.5455H279.222V31H278.384ZM278.81 24.6364C278.647 24.6364 278.506 24.5807 278.388 24.4695C278.272 24.3582 278.214 24.2244 278.214 24.0682C278.214 23.9119 278.272 23.7782 278.388 23.6669C278.506 23.5556 278.647 23.5 278.81 23.5C278.974 23.5 279.113 23.5556 279.229 23.6669C279.348 23.7782 279.407 23.9119 279.407 24.0682C279.407 24.2244 279.348 24.3582 279.229 24.4695C279.113 24.5807 278.974 24.6364 278.81 24.6364ZM281.595 27.7188V31H280.757V25.5455H281.567V26.3977H281.638C281.766 26.1207 281.96 25.8982 282.22 25.7301C282.481 25.5597 282.817 25.4744 283.229 25.4744C283.598 25.4744 283.921 25.5502 284.198 25.7017C284.475 25.8509 284.691 26.0781 284.845 26.3835C284.999 26.6866 285.075 27.0701 285.075 27.5341V31H284.237V27.5909C284.237 27.1624 284.126 26.8286 283.904 26.5895C283.681 26.348 283.376 26.2273 282.987 26.2273C282.72 26.2273 282.481 26.2853 282.27 26.4013C282.062 26.5173 281.897 26.6866 281.776 26.9091C281.656 27.1316 281.595 27.4015 281.595 27.7188ZM288.809 33.1591C288.404 33.1591 288.056 33.107 287.765 33.0028C287.473 32.901 287.231 32.7661 287.037 32.598C286.845 32.4323 286.692 32.2547 286.578 32.0653L287.246 31.5966C287.322 31.696 287.418 31.8097 287.534 31.9375C287.65 32.0677 287.808 32.1802 288.01 32.2749C288.213 32.3719 288.48 32.4205 288.809 32.4205C289.249 32.4205 289.612 32.3139 289.899 32.1009C290.185 31.8878 290.328 31.554 290.328 31.0994V29.9915H290.257C290.196 30.0909 290.108 30.214 289.995 30.3608C289.883 30.5052 289.722 30.6342 289.512 30.7479C289.303 30.8591 289.022 30.9148 288.667 30.9148C288.226 30.9148 287.831 30.8106 287.48 30.6023C287.132 30.3939 286.857 30.0909 286.653 29.6932C286.452 29.2955 286.351 28.8125 286.351 28.2443C286.351 27.6856 286.449 27.1991 286.646 26.7848C286.842 26.3681 287.116 26.0462 287.466 25.8189C287.817 25.5893 288.221 25.4744 288.681 25.4744C289.036 25.4744 289.318 25.5336 289.526 25.652C289.737 25.768 289.898 25.9006 290.009 26.0497C290.123 26.1965 290.21 26.3172 290.272 26.4119H290.357V25.5455H291.167V31.1562C291.167 31.625 291.06 32.0062 290.847 32.2997C290.636 32.5956 290.352 32.8123 289.995 32.9496C289.64 33.0893 289.244 33.1591 288.809 33.1591ZM288.78 30.1619C289.116 30.1619 289.4 30.085 289.632 29.9311C289.864 29.7772 290.041 29.5559 290.162 29.267C290.282 28.9782 290.343 28.6326 290.343 28.2301C290.343 27.8371 290.283 27.4903 290.165 27.1896C290.047 26.889 289.872 26.6534 289.64 26.483C289.408 26.3125 289.121 26.2273 288.78 26.2273C288.425 26.2273 288.129 26.3172 287.892 26.4972C287.658 26.6771 287.482 26.9186 287.363 27.2216C287.247 27.5246 287.189 27.8608 287.189 28.2301C287.189 28.6089 287.248 28.9439 287.367 29.2351C287.488 29.5239 287.665 29.7512 287.9 29.9169C288.136 30.0803 288.43 30.1619 288.78 30.1619ZM297.729 31.1136C297.218 31.1136 296.777 30.9929 296.408 30.7514C296.039 30.5099 295.755 30.1773 295.556 29.7536C295.357 29.3298 295.257 28.8456 295.257 28.3011C295.257 27.7472 295.359 27.2583 295.563 26.8345C295.769 26.4084 296.055 26.0758 296.422 25.8366C296.792 25.5952 297.222 25.4744 297.715 25.4744C298.098 25.4744 298.444 25.5455 298.752 25.6875C299.06 25.8295 299.312 26.0284 299.508 26.2841C299.705 26.5398 299.827 26.8381 299.874 27.179H299.036C298.972 26.9304 298.83 26.7102 298.61 26.5185C298.392 26.3243 298.098 26.2273 297.729 26.2273C297.402 26.2273 297.116 26.3125 296.87 26.483C296.626 26.651 296.435 26.889 296.298 27.1967C296.163 27.5021 296.096 27.8608 296.096 28.2727C296.096 28.6941 296.162 29.0611 296.294 29.3736C296.429 29.6861 296.619 29.9287 296.863 30.1016C297.109 30.2744 297.398 30.3608 297.729 30.3608C297.947 30.3608 298.145 30.3229 298.322 30.2472C298.5 30.1714 298.65 30.0625 298.773 29.9205C298.896 29.7784 298.984 29.608 299.036 29.4091H299.874C299.827 29.7311 299.709 30.0211 299.522 30.2791C299.338 30.5348 299.093 30.7384 298.787 30.8899C298.484 31.0391 298.132 31.1136 297.729 31.1136ZM303.315 31.1136C302.823 31.1136 302.391 30.9964 302.019 30.7621C301.65 30.5277 301.361 30.1998 301.152 29.7784C300.946 29.357 300.843 28.8646 300.843 28.3011C300.843 27.733 300.946 27.237 301.152 26.8132C301.361 26.3894 301.65 26.0604 302.019 25.826C302.391 25.5916 302.823 25.4744 303.315 25.4744C303.807 25.4744 304.238 25.5916 304.608 25.826C304.979 26.0604 305.268 26.3894 305.474 26.8132C305.682 27.237 305.787 27.733 305.787 28.3011C305.787 28.8646 305.682 29.357 305.474 29.7784C305.268 30.1998 304.979 30.5277 304.608 30.7621C304.238 30.9964 303.807 31.1136 303.315 31.1136ZM303.315 30.3608C303.689 30.3608 303.997 30.2649 304.238 30.0732C304.48 29.8814 304.658 29.6293 304.775 29.3168C304.891 29.0043 304.949 28.6657 304.949 28.3011C304.949 27.9366 304.891 27.5968 304.775 27.282C304.658 26.9671 304.48 26.7126 304.238 26.5185C303.997 26.3243 303.689 26.2273 303.315 26.2273C302.941 26.2273 302.633 26.3243 302.392 26.5185C302.15 26.7126 301.971 26.9671 301.855 27.282C301.739 27.5968 301.681 27.9366 301.681 28.3011C301.681 28.6657 301.739 29.0043 301.855 29.3168C301.971 29.6293 302.15 29.8814 302.392 30.0732C302.633 30.2649 302.941 30.3608 303.315 30.3608ZM307.066 31V25.5455H307.876V26.3977H307.947C308.06 26.1065 308.244 25.8804 308.497 25.7195C308.75 25.5561 309.055 25.4744 309.41 25.4744C309.769 25.4744 310.069 25.5561 310.308 25.7195C310.55 25.8804 310.738 26.1065 310.873 26.3977H310.93C311.069 26.116 311.279 25.8923 311.558 25.7266C311.837 25.5585 312.172 25.4744 312.563 25.4744C313.051 25.4744 313.45 25.6271 313.76 25.9325C314.07 26.2356 314.225 26.7079 314.225 27.3494V31H313.387V27.3494C313.387 26.947 313.277 26.6593 313.057 26.4865C312.836 26.3137 312.577 26.2273 312.279 26.2273C311.895 26.2273 311.598 26.3433 311.388 26.5753C311.177 26.8049 311.072 27.0961 311.072 27.4489V31H310.219V27.2642C310.219 26.9541 310.119 26.7043 309.917 26.5149C309.716 26.3232 309.457 26.2273 309.14 26.2273C308.922 26.2273 308.718 26.2853 308.529 26.4013C308.342 26.5173 308.19 26.6783 308.074 26.8842C307.961 27.0878 307.904 27.3234 307.904 27.5909V31H307.066ZM315.757 33.0455V25.5455H316.567V26.4119H316.666C316.728 26.3172 316.813 26.1965 316.922 26.0497C317.033 25.9006 317.192 25.768 317.398 25.652C317.606 25.5336 317.888 25.4744 318.243 25.4744C318.702 25.4744 319.107 25.5893 319.458 25.8189C319.808 26.0485 320.081 26.3741 320.278 26.7955C320.474 27.2169 320.573 27.714 320.573 28.2869C320.573 28.8646 320.474 29.3653 320.278 29.7891C320.081 30.2105 319.809 30.5372 319.461 30.7692C319.113 30.9988 318.712 31.1136 318.257 31.1136C317.907 31.1136 317.626 31.0556 317.416 30.9396C317.205 30.8213 317.043 30.6875 316.929 30.5384C316.816 30.3868 316.728 30.2614 316.666 30.1619H316.595V33.0455H315.757ZM316.581 28.2727C316.581 28.6847 316.642 29.0481 316.762 29.3629C316.883 29.6754 317.059 29.9205 317.291 30.098C317.523 30.2732 317.807 30.3608 318.144 30.3608C318.494 30.3608 318.786 30.2685 319.021 30.0838C319.258 29.8968 319.435 29.6458 319.553 29.331C319.674 29.0137 319.735 28.661 319.735 28.2727C319.735 27.8892 319.675 27.5436 319.557 27.2358C319.441 26.9257 319.265 26.6806 319.028 26.5007C318.794 26.3184 318.499 26.2273 318.144 26.2273C317.803 26.2273 317.516 26.3137 317.284 26.4865C317.052 26.657 316.877 26.8961 316.759 27.2038C316.64 27.5092 316.581 27.8655 316.581 28.2727ZM323.456 31.1278C323.11 31.1278 322.797 31.0627 322.515 30.9325C322.233 30.8 322.01 30.6094 321.844 30.3608C321.678 30.1098 321.595 29.8068 321.595 29.4517C321.595 29.1392 321.657 28.8859 321.78 28.6918C321.903 28.4953 322.068 28.3414 322.274 28.2301C322.48 28.1188 322.707 28.036 322.955 27.9815C323.206 27.9247 323.459 27.8797 323.712 27.8466C324.043 27.804 324.312 27.772 324.518 27.7507C324.726 27.727 324.878 27.688 324.972 27.6335C325.07 27.5791 325.118 27.4844 325.118 27.3494V27.321C325.118 26.9706 325.022 26.6984 324.83 26.5043C324.641 26.3101 324.353 26.2131 323.968 26.2131C323.567 26.2131 323.254 26.3007 323.026 26.4759C322.799 26.651 322.639 26.8381 322.547 27.0369L321.752 26.7528C321.894 26.4214 322.083 26.1634 322.32 25.9787C322.559 25.7917 322.819 25.6615 323.101 25.5881C323.385 25.5123 323.664 25.4744 323.939 25.4744C324.114 25.4744 324.316 25.4957 324.543 25.5384C324.772 25.5786 324.994 25.6626 325.207 25.7905C325.422 25.9183 325.601 26.1113 325.743 26.3693C325.885 26.6274 325.956 26.973 325.956 27.4062V31H325.118V30.2614H325.075C325.019 30.3797 324.924 30.5064 324.791 30.6413C324.659 30.7763 324.482 30.8911 324.262 30.9858C324.042 31.0805 323.773 31.1278 323.456 31.1278ZM323.584 30.375C323.915 30.375 324.195 30.3099 324.422 30.1797C324.652 30.0495 324.825 29.8814 324.941 29.6754C325.059 29.4695 325.118 29.2528 325.118 29.0256V28.2585C325.083 28.3011 325.004 28.3402 324.884 28.3757C324.765 28.4089 324.628 28.4384 324.472 28.4645C324.318 28.4882 324.168 28.5095 324.021 28.5284C323.876 28.545 323.759 28.5592 323.669 28.571C323.451 28.5994 323.248 28.6456 323.058 28.7095C322.871 28.7711 322.72 28.8646 322.604 28.9901C322.49 29.1132 322.433 29.2812 322.433 29.4943C322.433 29.7855 322.541 30.0057 322.757 30.1548C322.974 30.3016 323.25 30.375 323.584 30.375ZM328.324 27.7188V31H327.486V25.5455H328.295V26.3977H328.366C328.494 26.1207 328.688 25.8982 328.949 25.7301C329.209 25.5597 329.545 25.4744 329.957 25.4744C330.327 25.4744 330.65 25.5502 330.927 25.7017C331.204 25.8509 331.419 26.0781 331.573 26.3835C331.727 26.6866 331.804 27.0701 331.804 27.5341V31H330.966V27.5909C330.966 27.1624 330.855 26.8286 330.632 26.5895C330.41 26.348 330.104 26.2273 329.716 26.2273C329.448 26.2273 329.209 26.2853 328.999 26.4013C328.79 26.5173 328.626 26.6866 328.505 26.9091C328.384 27.1316 328.324 27.4015 328.324 27.7188ZM333.68 33.0455C333.538 33.0455 333.411 33.0336 333.3 33.0099C333.189 32.9886 333.112 32.9673 333.069 32.946L333.282 32.2074C333.486 32.2595 333.666 32.2784 333.822 32.2642C333.978 32.25 334.117 32.1802 334.237 32.0547C334.36 31.9316 334.473 31.7315 334.575 31.4545L334.731 31.0284L332.714 25.5455H333.623L335.129 29.892H335.186L336.691 25.5455H337.6L335.285 31.7955C335.181 32.0772 335.052 32.3104 334.898 32.495C334.744 32.6821 334.565 32.8205 334.362 32.9105C334.16 33.0005 333.933 33.0455 333.68 33.0455ZM343.948 25.5455V26.2557H341.008V25.5455H343.948ZM341.888 31V24.7926C341.888 24.4801 341.962 24.2197 342.108 24.0114C342.255 23.803 342.446 23.6468 342.68 23.5426C342.915 23.4384 343.162 23.3864 343.422 23.3864C343.628 23.3864 343.796 23.4029 343.927 23.4361C344.057 23.4692 344.154 23.5 344.218 23.5284L343.976 24.2528C343.934 24.2386 343.875 24.2209 343.799 24.1996C343.725 24.1783 343.628 24.1676 343.508 24.1676C343.231 24.1676 343.031 24.2375 342.907 24.3771C342.787 24.5168 342.726 24.7216 342.726 24.9915V31H341.888ZM347.114 31.1136C346.621 31.1136 346.189 30.9964 345.818 30.7621C345.448 30.5277 345.16 30.1998 344.951 29.7784C344.745 29.357 344.642 28.8646 344.642 28.3011C344.642 27.733 344.745 27.237 344.951 26.8132C345.16 26.3894 345.448 26.0604 345.818 25.826C346.189 25.5916 346.621 25.4744 347.114 25.4744C347.606 25.4744 348.037 25.5916 348.406 25.826C348.778 26.0604 349.067 26.3894 349.273 26.8132C349.481 27.237 349.585 27.733 349.585 28.3011C349.585 28.8646 349.481 29.357 349.273 29.7784C349.067 30.1998 348.778 30.5277 348.406 30.7621C348.037 30.9964 347.606 31.1136 347.114 31.1136ZM347.114 30.3608C347.488 30.3608 347.796 30.2649 348.037 30.0732C348.279 29.8814 348.457 29.6293 348.573 29.3168C348.689 29.0043 348.747 28.6657 348.747 28.3011C348.747 27.9366 348.689 27.5968 348.573 27.282C348.457 26.9671 348.279 26.7126 348.037 26.5185C347.796 26.3243 347.488 26.2273 347.114 26.2273C346.74 26.2273 346.432 26.3243 346.191 26.5185C345.949 26.7126 345.77 26.9671 345.654 27.282C345.538 27.5968 345.48 27.9366 345.48 28.3011C345.48 28.6657 345.538 29.0043 345.654 29.3168C345.77 29.6293 345.949 29.8814 346.191 30.0732C346.432 30.2649 346.74 30.3608 347.114 30.3608ZM350.865 31V25.5455H351.674V26.3693H351.731C351.831 26.0994 352.011 25.8804 352.271 25.7124C352.531 25.5443 352.825 25.4602 353.152 25.4602C353.213 25.4602 353.29 25.4614 353.382 25.4638C353.475 25.4661 353.545 25.4697 353.592 25.4744V26.3267C353.564 26.3196 353.498 26.3089 353.397 26.2947C353.297 26.2782 353.192 26.2699 353.081 26.2699C352.815 26.2699 352.579 26.3255 352.37 26.4368C352.164 26.5457 352.001 26.6972 351.88 26.8913C351.762 27.0831 351.703 27.3021 351.703 27.5483V31H350.865ZM360.296 23.7273H361.176V28.9261C361.176 29.3902 361.091 29.7843 360.921 30.1087C360.75 30.433 360.51 30.6792 360.2 30.8473C359.89 31.0154 359.524 31.0994 359.102 31.0994C358.705 31.0994 358.351 31.0272 358.041 30.8828C357.731 30.736 357.487 30.5277 357.309 30.2578C357.132 29.9879 357.043 29.6671 357.043 29.2955H357.909C357.909 29.5014 357.96 29.6813 358.062 29.8352C358.166 29.9867 358.308 30.1051 358.488 30.1903C358.668 30.2756 358.873 30.3182 359.102 30.3182C359.356 30.3182 359.571 30.2649 359.749 30.1584C359.926 30.0518 360.061 29.8956 360.154 29.6896C360.248 29.4813 360.296 29.2268 360.296 28.9261V23.7273ZM365.115 31.1136C364.589 31.1136 364.136 30.9976 363.754 30.7656C363.376 30.5312 363.083 30.2045 362.877 29.7855C362.674 29.3641 362.572 28.8741 362.572 28.3153C362.572 27.7566 362.674 27.2642 362.877 26.8381C363.083 26.4096 363.37 26.0758 363.737 25.8366C364.106 25.5952 364.537 25.4744 365.029 25.4744C365.313 25.4744 365.594 25.5218 365.871 25.6165C366.148 25.7112 366.4 25.8651 366.627 26.0781C366.855 26.2888 367.036 26.5682 367.171 26.9162C367.306 27.2642 367.373 27.6927 367.373 28.2017V28.5568H363.169V27.8324H366.521C366.521 27.5246 366.459 27.25 366.336 27.0085C366.215 26.767 366.043 26.5765 365.818 26.4368C365.595 26.2971 365.332 26.2273 365.029 26.2273C364.695 26.2273 364.407 26.3101 364.163 26.4759C363.921 26.6392 363.735 26.8523 363.605 27.1151C363.475 27.3778 363.41 27.6596 363.41 27.9602V28.4432C363.41 28.8551 363.481 29.2043 363.623 29.4908C363.767 29.7749 363.968 29.9915 364.223 30.1406C364.479 30.2874 364.776 30.3608 365.115 30.3608C365.335 30.3608 365.534 30.33 365.711 30.2685C365.891 30.2045 366.046 30.1098 366.176 29.9844C366.307 29.8565 366.407 29.6979 366.478 29.5085L367.288 29.7358C367.203 30.0104 367.059 30.2519 366.858 30.4602C366.657 30.6662 366.408 30.8272 366.112 30.9432C365.816 31.0568 365.484 31.1136 365.115 31.1136ZM371.02 25.5455V26.2557H368.193V25.5455H371.02ZM369.017 24.2386H369.855V29.4375C369.855 29.6742 369.89 29.8518 369.958 29.9702C370.029 30.0862 370.119 30.1643 370.228 30.2045C370.339 30.2424 370.457 30.2614 370.58 30.2614C370.672 30.2614 370.748 30.2566 370.807 30.2472C370.866 30.2353 370.914 30.2259 370.949 30.2188L371.119 30.9716C371.063 30.9929 370.983 31.0142 370.882 31.0355C370.78 31.0592 370.651 31.071 370.494 31.071C370.258 31.071 370.026 31.0201 369.798 30.9183C369.574 30.8165 369.387 30.6615 369.237 30.4531C369.091 30.2448 369.017 29.982 369.017 29.6648V24.2386ZM372.512 31V23.7273H374.969C375.537 23.7273 376.003 23.8243 376.368 24.0185C376.733 24.2102 377.003 24.4742 377.178 24.8104C377.353 25.1465 377.441 25.5289 377.441 25.9574C377.441 26.3859 377.353 26.7659 377.178 27.0973C377.003 27.4287 376.734 27.6892 376.372 27.8786C376.009 28.0656 375.547 28.1591 374.983 28.1591H372.994V27.3636H374.955C375.343 27.3636 375.655 27.3068 375.892 27.1932C376.131 27.0795 376.304 26.9186 376.411 26.7102C376.52 26.4995 376.574 26.2486 376.574 25.9574C376.574 25.6662 376.52 25.4117 376.411 25.1939C376.302 24.9761 376.128 24.808 375.889 24.6896C375.65 24.5689 375.334 24.5085 374.941 24.5085H373.392V31H372.512ZM375.935 27.733L377.725 31H376.702L374.941 27.733H375.935ZM382.232 28.7699V25.5455H383.07V31H382.232V30.0767H382.175C382.047 30.3537 381.848 30.5893 381.578 30.7834C381.309 30.9751 380.968 31.071 380.556 31.071C380.215 31.071 379.912 30.9964 379.647 30.8473C379.382 30.6958 379.173 30.4685 379.022 30.1655C378.87 29.8601 378.794 29.4754 378.794 29.0114V25.5455H379.632V28.9545C379.632 29.3523 379.744 29.6695 379.966 29.9062C380.191 30.143 380.478 30.2614 380.826 30.2614C381.034 30.2614 381.246 30.2081 381.461 30.1016C381.679 29.995 381.861 29.8317 382.008 29.6115C382.157 29.3913 382.232 29.1108 382.232 28.7699ZM384.719 31V23.7273H385.557V26.4119H385.628C385.689 26.3172 385.774 26.1965 385.883 26.0497C385.995 25.9006 386.153 25.768 386.359 25.652C386.568 25.5336 386.849 25.4744 387.204 25.4744C387.664 25.4744 388.068 25.5893 388.419 25.8189C388.769 26.0485 389.043 26.3741 389.239 26.7955C389.436 27.2169 389.534 27.714 389.534 28.2869C389.534 28.8646 389.436 29.3653 389.239 29.7891C389.043 30.2105 388.77 30.5372 388.422 30.7692C388.074 30.9988 387.673 31.1136 387.219 31.1136C386.868 31.1136 386.588 31.0556 386.377 30.9396C386.166 30.8213 386.004 30.6875 385.89 30.5384C385.777 30.3868 385.689 30.2614 385.628 30.1619H385.528V31H384.719ZM385.542 28.2727C385.542 28.6847 385.603 29.0481 385.724 29.3629C385.844 29.6754 386.021 29.9205 386.253 30.098C386.485 30.2732 386.769 30.3608 387.105 30.3608C387.455 30.3608 387.748 30.2685 387.982 30.0838C388.219 29.8968 388.396 29.6458 388.515 29.331C388.635 29.0137 388.696 28.661 388.696 28.2727C388.696 27.8892 388.637 27.5436 388.518 27.2358C388.402 26.9257 388.226 26.6806 387.989 26.5007C387.755 26.3184 387.46 26.2273 387.105 26.2273C386.764 26.2273 386.478 26.3137 386.246 26.4865C386.014 26.657 385.838 26.8961 385.72 27.2038C385.602 27.5092 385.542 27.8655 385.542 28.2727ZM391.16 33.0455C391.018 33.0455 390.892 33.0336 390.78 33.0099C390.669 32.9886 390.592 32.9673 390.55 32.946L390.763 32.2074C390.966 32.2595 391.146 32.2784 391.302 32.2642C391.459 32.25 391.597 32.1802 391.718 32.0547C391.841 31.9316 391.953 31.7315 392.055 31.4545L392.211 31.0284L390.194 25.5455H391.104L392.609 29.892H392.666L394.172 25.5455H395.081L392.765 31.7955C392.661 32.0772 392.532 32.3104 392.378 32.495C392.224 32.6821 392.046 32.8205 391.842 32.9105C391.641 33.0005 391.414 33.0455 391.16 33.0455ZM397.095 30.0057L397.038 30.3892C396.998 30.6591 396.937 30.9479 396.854 31.2557C396.773 31.5634 396.689 31.8535 396.602 32.1257C396.514 32.398 396.442 32.6146 396.385 32.7756H395.746C395.777 32.6241 395.817 32.424 395.866 32.1754C395.916 31.9268 395.966 31.6487 396.016 31.3409C396.068 31.0355 396.11 30.723 396.143 30.4034L396.186 30.0057H397.095ZM218.665 35.7273H219.545V40.9261C219.545 41.3902 219.46 41.7843 219.29 42.1087C219.119 42.433 218.879 42.6792 218.569 42.8473C218.259 43.0154 217.893 43.0994 217.472 43.0994C217.074 43.0994 216.72 43.0272 216.41 42.8828C216.1 42.736 215.856 42.5277 215.678 42.2578C215.501 41.9879 215.412 41.6671 215.412 41.2955H216.278C216.278 41.5014 216.329 41.6813 216.431 41.8352C216.535 41.9867 216.677 42.1051 216.857 42.1903C217.037 42.2756 217.242 42.3182 217.472 42.3182C217.725 42.3182 217.94 42.2649 218.118 42.1584C218.295 42.0518 218.43 41.8956 218.523 41.6896C218.617 41.4813 218.665 41.2268 218.665 40.9261V35.7273ZM223.484 43.1136C222.958 43.1136 222.505 42.9976 222.124 42.7656C221.745 42.5312 221.452 42.2045 221.246 41.7855C221.043 41.3641 220.941 40.8741 220.941 40.3153C220.941 39.7566 221.043 39.2642 221.246 38.8381C221.452 38.4096 221.739 38.0758 222.106 37.8366C222.475 37.5952 222.906 37.4744 223.398 37.4744C223.683 37.4744 223.963 37.5218 224.24 37.6165C224.517 37.7112 224.769 37.8651 224.996 38.0781C225.224 38.2888 225.405 38.5682 225.54 38.9162C225.675 39.2642 225.742 39.6927 225.742 40.2017V40.5568H221.538V39.8324H224.89C224.89 39.5246 224.828 39.25 224.705 39.0085C224.585 38.767 224.412 38.5765 224.187 38.4368C223.964 38.2971 223.701 38.2273 223.398 38.2273C223.065 38.2273 222.776 38.3101 222.532 38.4759C222.29 38.6392 222.105 38.8523 221.974 39.1151C221.844 39.3778 221.779 39.6596 221.779 39.9602V40.4432C221.779 40.8551 221.85 41.2043 221.992 41.4908C222.137 41.7749 222.337 41.9915 222.592 42.1406C222.848 42.2874 223.145 42.3608 223.484 42.3608C223.704 42.3608 223.903 42.33 224.08 42.2685C224.26 42.2045 224.415 42.1098 224.545 41.9844C224.676 41.8565 224.776 41.6979 224.847 41.5085L225.657 41.7358C225.572 42.0104 225.429 42.2519 225.227 42.4602C225.026 42.6662 224.777 42.8272 224.482 42.9432C224.186 43.0568 223.853 43.1136 223.484 43.1136ZM229.389 37.5455V38.2557H226.562V37.5455H229.389ZM227.386 36.2386H228.224V41.4375C228.224 41.6742 228.259 41.8518 228.327 41.9702C228.398 42.0862 228.488 42.1643 228.597 42.2045C228.709 42.2424 228.826 42.2614 228.949 42.2614C229.041 42.2614 229.117 42.2566 229.176 42.2472C229.235 42.2353 229.283 42.2259 229.318 42.2188L229.489 42.9716C229.432 42.9929 229.353 43.0142 229.251 43.0355C229.149 43.0592 229.02 43.071 228.864 43.071C228.627 43.071 228.395 43.0201 228.168 42.9183C227.943 42.8165 227.756 42.6615 227.607 42.4531C227.46 42.2448 227.386 41.982 227.386 41.6648V36.2386ZM237.553 37.5455C237.511 37.1856 237.338 36.9062 237.035 36.7074C236.732 36.5085 236.36 36.4091 235.92 36.4091C235.598 36.4091 235.316 36.4612 235.075 36.5653C234.835 36.6695 234.648 36.8127 234.513 36.995C234.381 37.1773 234.315 37.3845 234.315 37.6165C234.315 37.8106 234.361 37.9775 234.453 38.1172C234.548 38.2545 234.669 38.3693 234.815 38.4616C234.962 38.5516 235.116 38.6262 235.277 38.6854C235.438 38.7422 235.586 38.7884 235.721 38.8239L236.46 39.0227C236.649 39.0724 236.86 39.1411 237.092 39.2287C237.326 39.3163 237.55 39.4358 237.763 39.5874C237.978 39.7365 238.156 39.9283 238.295 40.1626C238.435 40.397 238.505 40.6847 238.505 41.0256C238.505 41.4186 238.402 41.7737 238.196 42.0909C237.992 42.4081 237.694 42.6603 237.301 42.8473C236.911 43.0343 236.436 43.1278 235.877 43.1278C235.356 43.1278 234.905 43.0438 234.524 42.8757C234.145 42.7076 233.847 42.4732 233.629 42.1726C233.414 41.8719 233.292 41.5227 233.263 41.125H234.173C234.196 41.3996 234.289 41.6269 234.45 41.8068C234.613 41.9844 234.819 42.117 235.067 42.2045C235.318 42.2898 235.588 42.3324 235.877 42.3324C236.213 42.3324 236.515 42.2779 236.783 42.169C237.05 42.0578 237.262 41.9039 237.418 41.7074C237.575 41.5085 237.653 41.2765 237.653 41.0114C237.653 40.7699 237.585 40.5734 237.45 40.4219C237.315 40.2704 237.138 40.1473 236.918 40.0526C236.697 39.9579 236.46 39.875 236.204 39.804L235.309 39.5483C234.741 39.3849 234.291 39.1518 233.96 38.8487C233.628 38.5457 233.462 38.1491 233.462 37.6591C233.462 37.2519 233.572 36.8968 233.793 36.5938C234.015 36.2884 234.313 36.0516 234.688 35.8835C235.064 35.7131 235.484 35.6278 235.948 35.6278C236.417 35.6278 236.834 35.7119 237.198 35.88C237.563 36.0457 237.852 36.273 238.065 36.5618C238.28 36.8506 238.394 37.1785 238.406 37.5455H237.553ZM242.055 43.1136C241.563 43.1136 241.131 42.9964 240.759 42.7621C240.39 42.5277 240.101 42.1998 239.893 41.7784C239.687 41.357 239.584 40.8646 239.584 40.3011C239.584 39.733 239.687 39.237 239.893 38.8132C240.101 38.3894 240.39 38.0604 240.759 37.826C241.131 37.5916 241.563 37.4744 242.055 37.4744C242.548 37.4744 242.979 37.5916 243.348 37.826C243.72 38.0604 244.008 38.3894 244.214 38.8132C244.423 39.237 244.527 39.733 244.527 40.3011C244.527 40.8646 244.423 41.357 244.214 41.7784C244.008 42.1998 243.72 42.5277 243.348 42.7621C242.979 42.9964 242.548 43.1136 242.055 43.1136ZM242.055 42.3608C242.429 42.3608 242.737 42.2649 242.979 42.0732C243.22 41.8814 243.399 41.6293 243.515 41.3168C243.631 41.0043 243.689 40.6657 243.689 40.3011C243.689 39.9366 243.631 39.5968 243.515 39.282C243.399 38.9671 243.22 38.7126 242.979 38.5185C242.737 38.3243 242.429 38.2273 242.055 38.2273C241.681 38.2273 241.373 38.3243 241.132 38.5185C240.89 38.7126 240.712 38.9671 240.596 39.282C240.48 39.5968 240.422 39.9366 240.422 40.3011C240.422 40.6657 240.48 41.0043 240.596 41.3168C240.712 41.6293 240.89 41.8814 241.132 42.0732C241.373 42.2649 241.681 42.3608 242.055 42.3608ZM246.644 35.7273V43H245.806V35.7273H246.644ZM251.617 40.7699V37.5455H252.455V43H251.617V42.0767H251.56C251.432 42.3537 251.233 42.5893 250.963 42.7834C250.693 42.9751 250.352 43.071 249.941 43.071C249.6 43.071 249.297 42.9964 249.031 42.8473C248.766 42.6958 248.558 42.4685 248.406 42.1655C248.255 41.8601 248.179 41.4754 248.179 41.0114V37.5455H249.017V40.9545C249.017 41.3523 249.128 41.6695 249.351 41.9062C249.576 42.143 249.862 42.2614 250.21 42.2614C250.419 42.2614 250.631 42.2081 250.846 42.1016C251.064 41.995 251.246 41.8317 251.393 41.6115C251.542 41.3913 251.617 41.1108 251.617 40.7699ZM256.362 37.5455V38.2557H253.535V37.5455H256.362ZM254.359 36.2386H255.197V41.4375C255.197 41.6742 255.231 41.8518 255.3 41.9702C255.371 42.0862 255.461 42.1643 255.57 42.2045C255.681 42.2424 255.798 42.2614 255.922 42.2614C256.014 42.2614 256.09 42.2566 256.149 42.2472C256.208 42.2353 256.255 42.2259 256.291 42.2188L256.461 42.9716C256.404 42.9929 256.325 43.0142 256.223 43.0355C256.122 43.0592 255.993 43.071 255.836 43.071C255.6 43.071 255.368 43.0201 255.14 42.9183C254.915 42.8165 254.728 42.6615 254.579 42.4531C254.432 42.2448 254.359 41.982 254.359 41.6648V36.2386ZM257.623 43V37.5455H258.461V43H257.623ZM258.049 36.6364C257.885 36.6364 257.744 36.5807 257.626 36.4695C257.51 36.3582 257.452 36.2244 257.452 36.0682C257.452 35.9119 257.51 35.7782 257.626 35.6669C257.744 35.5556 257.885 35.5 258.049 35.5C258.212 35.5 258.352 35.5556 258.468 35.6669C258.586 35.7782 258.645 35.9119 258.645 36.0682C258.645 36.2244 258.586 36.3582 258.468 36.4695C258.352 36.5807 258.212 36.6364 258.049 36.6364ZM262.211 43.1136C261.719 43.1136 261.287 42.9964 260.915 42.7621C260.546 42.5277 260.257 42.1998 260.049 41.7784C259.843 41.357 259.74 40.8646 259.74 40.3011C259.74 39.733 259.843 39.237 260.049 38.8132C260.257 38.3894 260.546 38.0604 260.915 37.826C261.287 37.5916 261.719 37.4744 262.211 37.4744C262.704 37.4744 263.135 37.5916 263.504 37.826C263.876 38.0604 264.165 38.3894 264.371 38.8132C264.579 39.237 264.683 39.733 264.683 40.3011C264.683 40.8646 264.579 41.357 264.371 41.7784C264.165 42.1998 263.876 42.5277 263.504 42.7621C263.135 42.9964 262.704 43.1136 262.211 43.1136ZM262.211 42.3608C262.586 42.3608 262.893 42.2649 263.135 42.0732C263.376 41.8814 263.555 41.6293 263.671 41.3168C263.787 41.0043 263.845 40.6657 263.845 40.3011C263.845 39.9366 263.787 39.5968 263.671 39.282C263.555 38.9671 263.376 38.7126 263.135 38.5185C262.893 38.3243 262.586 38.2273 262.211 38.2273C261.837 38.2273 261.53 38.3243 261.288 38.5185C261.047 38.7126 260.868 38.9671 260.752 39.282C260.636 39.5968 260.578 39.9366 260.578 40.3011C260.578 40.6657 260.636 41.0043 260.752 41.3168C260.868 41.6293 261.047 41.8814 261.288 42.0732C261.53 42.2649 261.837 42.3608 262.211 42.3608ZM266.8 39.7188V43H265.962V37.5455H266.772V38.3977H266.843C266.971 38.1207 267.165 37.8982 267.425 37.7301C267.686 37.5597 268.022 37.4744 268.434 37.4744C268.803 37.4744 269.126 37.5502 269.403 37.7017C269.68 37.8509 269.896 38.0781 270.05 38.3835C270.204 38.6866 270.281 39.0701 270.281 39.5341V43H269.442V39.5909C269.442 39.1624 269.331 38.8286 269.109 38.5895C268.886 38.348 268.581 38.2273 268.192 38.2273C267.925 38.2273 267.686 38.2853 267.475 38.4013C267.267 38.5173 267.102 38.6866 266.982 38.9091C266.861 39.1316 266.8 39.4015 266.8 39.7188ZM275.676 38.767L274.923 38.9801C274.875 38.8546 274.806 38.7327 274.713 38.6143C274.623 38.4936 274.5 38.3942 274.344 38.3161C274.188 38.2379 273.988 38.1989 273.744 38.1989C273.41 38.1989 273.132 38.2758 272.909 38.4297C272.689 38.5812 272.579 38.7741 272.579 39.0085C272.579 39.2169 272.655 39.3814 272.806 39.5021C272.958 39.6229 273.195 39.7235 273.517 39.804L274.326 40.0028C274.814 40.1212 275.177 40.3023 275.416 40.5462C275.655 40.7876 275.775 41.099 275.775 41.4801C275.775 41.7926 275.685 42.072 275.505 42.3182C275.328 42.5644 275.079 42.7585 274.759 42.9006C274.44 43.0426 274.068 43.1136 273.644 43.1136C273.088 43.1136 272.628 42.9929 272.263 42.7514C271.898 42.5099 271.668 42.1572 271.57 41.6932L272.366 41.4943C272.442 41.7879 272.585 42.008 272.796 42.1548C273.009 42.3016 273.287 42.375 273.63 42.375C274.021 42.375 274.331 42.2921 274.561 42.1264C274.793 41.9583 274.909 41.7571 274.909 41.5227C274.909 41.3333 274.842 41.1747 274.71 41.0469C274.577 40.9167 274.374 40.8196 274.099 40.7557L273.19 40.5426C272.69 40.4242 272.323 40.2408 272.089 39.9922C271.857 39.7412 271.741 39.4276 271.741 39.0511C271.741 38.7434 271.827 38.4711 272 38.2344C272.175 37.9976 272.413 37.8118 272.714 37.6768C273.017 37.5419 273.36 37.4744 273.744 37.4744C274.284 37.4744 274.707 37.5928 275.015 37.8295C275.325 38.0663 275.545 38.3788 275.676 38.767ZM278.287 42.0057L278.23 42.3892C278.19 42.6591 278.128 42.9479 278.045 43.2557C277.965 43.5634 277.881 43.8535 277.793 44.1257C277.705 44.398 277.633 44.6146 277.576 44.7756H276.937C276.968 44.6241 277.008 44.424 277.058 44.1754C277.108 43.9268 277.157 43.6487 277.207 43.3409C277.259 43.0355 277.302 42.723 277.335 42.4034L277.377 42.0057H278.287ZM288.902 39.3636C288.902 40.1307 288.763 40.7936 288.486 41.3523C288.209 41.911 287.829 42.3419 287.346 42.6449C286.863 42.9479 286.312 43.0994 285.692 43.0994C285.071 43.0994 284.52 42.9479 284.037 42.6449C283.554 42.3419 283.174 41.911 282.897 41.3523C282.62 40.7936 282.481 40.1307 282.481 39.3636C282.481 38.5966 282.62 37.9337 282.897 37.375C283.174 36.8163 283.554 36.3854 284.037 36.0824C284.52 35.7794 285.071 35.6278 285.692 35.6278C286.312 35.6278 286.863 35.7794 287.346 36.0824C287.829 36.3854 288.209 36.8163 288.486 37.375C288.763 37.9337 288.902 38.5966 288.902 39.3636ZM288.05 39.3636C288.05 38.7339 287.944 38.2024 287.733 37.7692C287.525 37.3359 287.242 37.008 286.885 36.7855C286.53 36.563 286.132 36.4517 285.692 36.4517C285.251 36.4517 284.852 36.563 284.495 36.7855C284.14 37.008 283.857 37.3359 283.646 37.7692C283.438 38.2024 283.334 38.7339 283.334 39.3636C283.334 39.9934 283.438 40.5249 283.646 40.9581C283.857 41.3913 284.14 41.7192 284.495 41.9418C284.852 42.1643 285.251 42.2756 285.692 42.2756C286.132 42.2756 286.53 42.1643 286.885 41.9418C287.242 41.7192 287.525 41.3913 287.733 40.9581C287.944 40.5249 288.05 39.9934 288.05 39.3636ZM290.141 43V42.3608L294.062 36.5085H290.099V35.7273H295.113V36.3665L291.192 42.2188H295.155V43H290.141ZM303.422 37.5455C303.38 37.1856 303.207 36.9062 302.904 36.7074C302.601 36.5085 302.229 36.4091 301.789 36.4091C301.467 36.4091 301.185 36.4612 300.944 36.5653C300.705 36.6695 300.518 36.8127 300.383 36.995C300.25 37.1773 300.184 37.3845 300.184 37.6165C300.184 37.8106 300.23 37.9775 300.322 38.1172C300.417 38.2545 300.538 38.3693 300.684 38.4616C300.831 38.5516 300.985 38.6262 301.146 38.6854C301.307 38.7422 301.455 38.7884 301.59 38.8239L302.329 39.0227C302.518 39.0724 302.729 39.1411 302.961 39.2287C303.195 39.3163 303.419 39.4358 303.632 39.5874C303.847 39.7365 304.025 39.9283 304.165 40.1626C304.304 40.397 304.374 40.6847 304.374 41.0256C304.374 41.4186 304.271 41.7737 304.065 42.0909C303.862 42.4081 303.563 42.6603 303.17 42.8473C302.78 43.0343 302.305 43.1278 301.746 43.1278C301.225 43.1278 300.774 43.0438 300.393 42.8757C300.015 42.7076 299.716 42.4732 299.498 42.1726C299.283 41.8719 299.161 41.5227 299.133 41.125H300.042C300.065 41.3996 300.158 41.6269 300.319 41.8068C300.482 41.9844 300.688 42.117 300.937 42.2045C301.188 42.2898 301.457 42.3324 301.746 42.3324C302.082 42.3324 302.384 42.2779 302.652 42.169C302.919 42.0578 303.131 41.9039 303.287 41.7074C303.444 41.5085 303.522 41.2765 303.522 41.0114C303.522 40.7699 303.454 40.5734 303.319 40.4219C303.184 40.2704 303.007 40.1473 302.787 40.0526C302.567 39.9579 302.329 39.875 302.073 39.804L301.178 39.5483C300.61 39.3849 300.16 39.1518 299.829 38.8487C299.497 38.5457 299.331 38.1491 299.331 37.6591C299.331 37.2519 299.442 36.8968 299.662 36.5938C299.884 36.2884 300.183 36.0516 300.557 35.8835C300.933 35.7131 301.353 35.6278 301.817 35.6278C302.286 35.6278 302.703 35.7119 303.067 35.88C303.432 36.0457 303.721 36.273 303.934 36.5618C304.149 36.8506 304.263 37.1785 304.275 37.5455H303.422ZM307.924 43.1136C307.432 43.1136 307 42.9964 306.628 42.7621C306.259 42.5277 305.97 42.1998 305.762 41.7784C305.556 41.357 305.453 40.8646 305.453 40.3011C305.453 39.733 305.556 39.237 305.762 38.8132C305.97 38.3894 306.259 38.0604 306.628 37.826C307 37.5916 307.432 37.4744 307.924 37.4744C308.417 37.4744 308.848 37.5916 309.217 37.826C309.589 38.0604 309.877 38.3894 310.083 38.8132C310.292 39.237 310.396 39.733 310.396 40.3011C310.396 40.8646 310.292 41.357 310.083 41.7784C309.877 42.1998 309.589 42.5277 309.217 42.7621C308.848 42.9964 308.417 43.1136 307.924 43.1136ZM307.924 42.3608C308.298 42.3608 308.606 42.2649 308.848 42.0732C309.089 41.8814 309.268 41.6293 309.384 41.3168C309.5 41.0043 309.558 40.6657 309.558 40.3011C309.558 39.9366 309.5 39.5968 309.384 39.282C309.268 38.9671 309.089 38.7126 308.848 38.5185C308.606 38.3243 308.298 38.2273 307.924 38.2273C307.55 38.2273 307.243 38.3243 307.001 38.5185C306.76 38.7126 306.581 38.9671 306.465 39.282C306.349 39.5968 306.291 39.9366 306.291 40.3011C306.291 40.6657 306.349 41.0043 306.465 41.3168C306.581 41.6293 306.76 41.8814 307.001 42.0732C307.243 42.2649 307.55 42.3608 307.924 42.3608ZM312.513 35.7273V43H311.675V35.7273H312.513ZM317.486 40.7699V37.5455H318.324V43H317.486V42.0767H317.429C317.301 42.3537 317.102 42.5893 316.832 42.7834C316.563 42.9751 316.222 43.071 315.81 43.071C315.469 43.071 315.166 42.9964 314.901 42.8473C314.635 42.6958 314.427 42.4685 314.276 42.1655C314.124 41.8601 314.048 41.4754 314.048 41.0114V37.5455H314.886V40.9545C314.886 41.3523 314.998 41.6695 315.22 41.9062C315.445 42.143 315.732 42.2614 316.08 42.2614C316.288 42.2614 316.5 42.2081 316.715 42.1016C316.933 41.995 317.115 41.8317 317.262 41.6115C317.411 41.3913 317.486 41.1108 317.486 40.7699ZM322.231 37.5455V38.2557H319.404V37.5455H322.231ZM320.228 36.2386H321.066V41.4375C321.066 41.6742 321.101 41.8518 321.169 41.9702C321.24 42.0862 321.33 42.1643 321.439 42.2045C321.55 42.2424 321.668 42.2614 321.791 42.2614C321.883 42.2614 321.959 42.2566 322.018 42.2472C322.077 42.2353 322.124 42.2259 322.16 42.2188L322.33 42.9716C322.274 42.9929 322.194 43.0142 322.093 43.0355C321.991 43.0592 321.862 43.071 321.705 43.071C321.469 43.071 321.237 43.0201 321.009 42.9183C320.785 42.8165 320.597 42.6615 320.448 42.4531C320.302 42.2448 320.228 41.982 320.228 41.6648V36.2386ZM323.492 43V37.5455H324.33V43H323.492ZM323.918 36.6364C323.754 36.6364 323.614 36.5807 323.495 36.4695C323.379 36.3582 323.321 36.2244 323.321 36.0682C323.321 35.9119 323.379 35.7782 323.495 35.6669C323.614 35.5556 323.754 35.5 323.918 35.5C324.081 35.5 324.221 35.5556 324.337 35.6669C324.455 35.7782 324.514 35.9119 324.514 36.0682C324.514 36.2244 324.455 36.3582 324.337 36.4695C324.221 36.5807 324.081 36.6364 323.918 36.6364ZM328.081 43.1136C327.588 43.1136 327.156 42.9964 326.784 42.7621C326.415 42.5277 326.126 42.1998 325.918 41.7784C325.712 41.357 325.609 40.8646 325.609 40.3011C325.609 39.733 325.712 39.237 325.918 38.8132C326.126 38.3894 326.415 38.0604 326.784 37.826C327.156 37.5916 327.588 37.4744 328.081 37.4744C328.573 37.4744 329.004 37.5916 329.373 37.826C329.745 38.0604 330.034 38.3894 330.24 38.8132C330.448 39.237 330.552 39.733 330.552 40.3011C330.552 40.8646 330.448 41.357 330.24 41.7784C330.034 42.1998 329.745 42.5277 329.373 42.7621C329.004 42.9964 328.573 43.1136 328.081 43.1136ZM328.081 42.3608C328.455 42.3608 328.762 42.2649 329.004 42.0732C329.245 41.8814 329.424 41.6293 329.54 41.3168C329.656 41.0043 329.714 40.6657 329.714 40.3011C329.714 39.9366 329.656 39.5968 329.54 39.282C329.424 38.9671 329.245 38.7126 329.004 38.5185C328.762 38.3243 328.455 38.2273 328.081 38.2273C327.707 38.2273 327.399 38.3243 327.157 38.5185C326.916 38.7126 326.737 38.9671 326.621 39.282C326.505 39.5968 326.447 39.9366 326.447 40.3011C326.447 40.6657 326.505 41.0043 326.621 41.3168C326.737 41.6293 326.916 41.8814 327.157 42.0732C327.399 42.2649 327.707 42.3608 328.081 42.3608ZM332.67 39.7188V43H331.831V37.5455H332.641V38.3977H332.712C332.84 38.1207 333.034 37.8982 333.295 37.7301C333.555 37.5597 333.891 37.4744 334.303 37.4744C334.672 37.4744 334.996 37.5502 335.273 37.7017C335.55 37.8509 335.765 38.0781 335.919 38.3835C336.073 38.6866 336.15 39.0701 336.15 39.5341V43H335.312V39.5909C335.312 39.1624 335.2 38.8286 334.978 38.5895C334.755 38.348 334.45 38.2273 334.062 38.2273C333.794 38.2273 333.555 38.2853 333.344 38.4013C333.136 38.5173 332.971 38.6866 332.851 38.9091C332.73 39.1316 332.67 39.4015 332.67 39.7188ZM341.545 38.767L340.792 38.9801C340.745 38.8546 340.675 38.7327 340.582 38.6143C340.492 38.4936 340.369 38.3942 340.213 38.3161C340.057 38.2379 339.857 38.1989 339.613 38.1989C339.279 38.1989 339.001 38.2758 338.778 38.4297C338.558 38.5812 338.448 38.7741 338.448 39.0085C338.448 39.2169 338.524 39.3814 338.675 39.5021C338.827 39.6229 339.064 39.7235 339.386 39.804L340.195 40.0028C340.683 40.1212 341.046 40.3023 341.286 40.5462C341.525 40.7876 341.644 41.099 341.644 41.4801C341.644 41.7926 341.554 42.072 341.374 42.3182C341.197 42.5644 340.948 42.7585 340.629 42.9006C340.309 43.0426 339.937 43.1136 339.513 43.1136C338.957 43.1136 338.497 42.9929 338.132 42.7514C337.768 42.5099 337.537 42.1572 337.44 41.6932L338.235 41.4943C338.311 41.7879 338.454 42.008 338.665 42.1548C338.878 42.3016 339.156 42.375 339.499 42.375C339.89 42.375 340.2 42.2921 340.43 42.1264C340.662 41.9583 340.778 41.7571 340.778 41.5227C340.778 41.3333 340.711 41.1747 340.579 41.0469C340.446 40.9167 340.243 40.8196 339.968 40.7557L339.059 40.5426C338.559 40.4242 338.192 40.2408 337.958 39.9922C337.726 39.7412 337.61 39.4276 337.61 39.0511C337.61 38.7434 337.696 38.4711 337.869 38.2344C338.045 37.9976 338.282 37.8118 338.583 37.6768C338.886 37.5419 339.229 37.4744 339.613 37.4744C340.153 37.4744 340.576 37.5928 340.884 37.8295C341.194 38.0663 341.415 38.3788 341.545 38.767Z" fill="#2979FF"/>
</svg>
